<svg width="50" height="50" viewBox="0 0 50 50" fill="none" xmlns="http://www.w3.org/2000/svg">
<rect x="1.17188" y="1.17188" width="47.6562" height="47.6562" rx="23.8281" stroke="#F3F2EE" stroke-width="2.34375"/>
<path d="M32.801 18.3709C32.801 17.7237 32.2763 17.199 31.6291 17.199L21.0822 17.199C20.435 17.199 19.9104 17.7237 19.9104 18.3709C19.9104 19.0181 20.435 19.5428 21.0822 19.5428L30.4572 19.5428L30.4572 28.9178C30.4572 29.565 30.9819 30.0896 31.6291 30.0896C32.2763 30.0896 32.801 29.565 32.801 28.9178L32.801 18.3709ZM17.5422 30.8005C17.0846 31.2582 17.0846 32.0001 17.5422 32.4578C17.9999 32.9154 18.7418 32.9154 19.1995 32.4578L17.5422 30.8005ZM30.8005 17.5423L17.5422 30.8005L19.1995 32.4578L32.4577 19.1995L30.8005 17.5423Z" fill="#F3F2EE"/>
</svg>
