<svg width="28" height="28" viewBox="0 0 28 28" fill="none" xmlns="http://www.w3.org/2000/svg">
<path fill-rule="evenodd" clip-rule="evenodd" d="M23.0222 3.11108C23.6823 3.11108 24.3153 3.37331 24.7821 3.84006C25.2489 4.30682 25.5111 4.93988 25.5111 5.59997V23.0222C25.5111 23.6823 25.2489 24.3153 24.7821 24.7821C24.3153 25.2489 23.6823 25.5111 23.0222 25.5111H5.59997C4.93988 25.5111 4.30682 25.2489 3.84006 24.7821C3.37331 24.3153 3.11108 23.6823 3.11108 23.0222V5.59997C3.11108 4.93988 3.37331 4.30682 3.84006 3.84006C4.30682 3.37331 4.93988 3.11108 5.59997 3.11108H23.0222ZM16.8222 9.27899H21.0775L21.0943 10.5291H16.8222V9.27899ZM19.0884 18.2068C19.4754 18.2193 19.8567 18.1047 20.1795 17.8788C20.4178 17.7201 20.6005 17.4835 20.6999 17.205H22.5547C22.3428 18.0468 21.8589 18.7838 21.1867 19.2884C20.5211 19.719 19.7509 19.9347 18.9709 19.909C18.4149 19.919 17.8622 19.8167 17.3426 19.6076C16.8766 19.4124 16.4579 19.1095 16.1172 18.721C15.7879 18.3254 15.5368 17.8642 15.3786 17.3646C15.1923 16.8128 15.1014 16.2303 15.11 15.6446C15.1049 15.0671 15.1987 14.4934 15.387 13.9512C15.5624 13.449 15.8338 12.9903 16.1843 12.6036C16.5358 12.2246 16.9552 11.9232 17.4181 11.7171C17.9236 11.4963 18.4659 11.3848 19.0128 11.389C19.5944 11.3796 20.1698 11.5163 20.6915 11.788C21.1603 12.0459 21.5678 12.4127 21.8833 12.8608C22.1967 13.3227 22.4245 13.8431 22.5547 14.3945C22.6893 14.9741 22.7375 15.5724 22.6974 16.1677H17.1411C17.1166 16.7394 17.3031 17.2988 17.6615 17.7281C17.8554 17.9073 18.0821 18.0423 18.3277 18.1247C18.5732 18.2071 18.8321 18.235 19.0884 18.2068ZM17.6189 13.6268C17.4744 13.8009 17.3659 14.005 17.3006 14.2261H17.2586C17.2108 14.3996 17.1799 14.5779 17.1663 14.758H20.6495C20.5889 14.2862 20.4059 13.8413 20.1207 13.4725C19.9714 13.3174 19.792 13.1983 19.595 13.1233C19.398 13.0483 19.1879 13.0192 18.9792 13.0381C18.6904 13.0295 18.4034 13.0901 18.1399 13.2154C17.941 13.3126 17.7635 13.4528 17.6189 13.6268ZM13.935 12.9139C13.659 13.3063 13.2878 13.6126 12.8606 13.8005H12.8187C13.4133 13.9521 13.9354 14.3271 14.2875 14.8555C14.6148 15.381 14.7818 15.9999 14.7659 16.6287C14.7803 17.1361 14.6735 17.6392 14.4553 18.0916C14.2582 18.496 13.97 18.8431 13.616 19.1022C13.2506 19.3664 12.8445 19.5614 12.4158 19.6785C11.9635 19.8025 11.4982 19.8651 11.0309 19.8647H5.91108V8.71158H10.9218C11.3842 8.70561 11.8457 8.75318 12.2983 8.85344C12.6807 8.92495 13.0441 9.08215 13.3642 9.31446C13.6661 9.5379 13.9042 9.84455 14.0525 10.201C14.229 10.6125 14.3123 11.0618 14.2959 11.5132C14.3146 12.0082 14.1886 12.4973 13.935 12.9139ZM10.4098 10.6177H8.23599V13.2243H10.5861C10.9502 13.241 11.3097 13.1321 11.61 12.9139C11.7477 12.7893 11.8553 12.6318 11.9239 12.4545C11.9925 12.2772 12.0202 12.0852 12.0045 11.8944C12.0138 11.6728 11.9674 11.4526 11.8702 11.2561C11.7917 11.0921 11.6691 10.9564 11.5177 10.866C11.3611 10.7656 11.187 10.6993 11.0057 10.6709C10.8089 10.6353 10.6095 10.6175 10.4098 10.6177ZM11.9206 17.6571C12.0817 17.5476 12.2121 17.3945 12.2983 17.2138C12.3817 16.9854 12.4133 16.7394 12.3906 16.4957C12.412 16.2671 12.382 16.0365 12.3033 15.8224C12.2246 15.6083 12.0992 15.4168 11.9374 15.2634C11.5792 15.0073 11.1525 14.8799 10.7204 14.8999H8.20242V17.9586H10.7204C10.9405 17.9622 11.1602 17.9384 11.375 17.8876C11.5683 17.8453 11.753 17.7672 11.9206 17.6571Z" fill="white"/>
</svg>
