<svg width="28" height="28" viewBox="0 0 28 28" fill="none" xmlns="http://www.w3.org/2000/svg">
<path d="M14 2.80005C12.5292 2.80005 11.0728 3.08975 9.71399 3.6526C8.35515 4.21545 7.12047 5.04044 6.08045 6.08045C3.98005 8.18086 2.80005 11.0296 2.80005 14C2.80005 18.9504 6.01445 23.1504 10.4608 24.64C11.0208 24.7296 11.2 24.3824 11.2 24.08V22.1872C8.09765 22.8592 7.43685 20.6864 7.43685 20.6864C6.92165 19.3872 6.19365 19.04 6.19365 19.04C5.17445 18.3456 6.27205 18.368 6.27205 18.368C7.39205 18.4464 7.98565 19.5216 7.98565 19.5216C8.96005 21.224 10.6064 20.72 11.2448 20.4513C11.3456 19.7232 11.6368 19.2304 11.9504 18.9504C9.46405 18.6704 6.85445 17.7072 6.85445 13.44C6.85445 12.1968 7.28005 11.2 8.00805 10.4048C7.89605 10.1248 7.50405 8.96005 8.12005 7.44805C8.12005 7.44805 9.06085 7.14565 11.2 8.59045C12.0848 8.34405 13.048 8.22085 14 8.22085C14.952 8.22085 15.9152 8.34405 16.8 8.59045C18.9392 7.14565 19.88 7.44805 19.88 7.44805C20.496 8.96005 20.104 10.1248 19.9921 10.4048C20.72 11.2 21.1456 12.1968 21.1456 13.44C21.1456 17.7184 18.5248 18.6592 16.0272 18.9392C16.4304 19.2864 16.8 19.9696 16.8 21.0112V24.08C16.8 24.3824 16.9792 24.7408 17.5504 24.64C21.9968 23.1392 25.2 18.9504 25.2 14C25.2 12.5292 24.9104 11.0728 24.3475 9.71399C23.7846 8.35515 22.9597 7.12047 21.9196 6.08045C20.8796 5.04044 19.645 4.21545 18.2861 3.6526C16.9273 3.08975 15.4709 2.80005 14 2.80005Z" fill="white"/>
</svg>
