<svg width="28" height="28" viewBox="0 0 28 28" fill="none" xmlns="http://www.w3.org/2000/svg">
<path d="M15.1514 2.80005C16.4114 2.80341 17.0508 2.81013 17.603 2.82581L17.8202 2.83365C18.0711 2.84261 18.3186 2.85381 18.6176 2.86725C19.8093 2.92324 20.6223 3.11139 21.3357 3.38802C22.0749 3.67248 22.6976 4.05774 23.3203 4.67931C23.8898 5.23917 24.3304 5.91639 24.6116 6.66385C24.8882 7.37725 25.0764 8.19033 25.1324 9.38307C25.1458 9.68098 25.157 9.92848 25.166 10.1805L25.1727 10.3977C25.1895 10.9488 25.1962 11.5882 25.1984 12.8482L25.1995 13.6837V15.1508C25.2023 15.9677 25.1937 16.7846 25.1738 17.6012L25.1671 17.8185C25.1581 18.0705 25.1469 18.318 25.1335 18.6159C25.0775 19.8086 24.8871 20.6206 24.6116 21.3351C24.3312 22.083 23.8905 22.7604 23.3203 23.3196C22.7603 23.8889 22.0831 24.3295 21.3357 24.6109C20.6223 24.8876 19.8093 25.0757 18.6176 25.1317C18.3519 25.1442 18.0861 25.1554 17.8202 25.1653L17.603 25.172C17.0508 25.1877 16.4114 25.1955 15.1514 25.1978L14.3159 25.1989H12.8499C12.0327 25.2017 11.2154 25.1931 10.3984 25.1731L10.1811 25.1664C9.91525 25.1564 9.64945 25.1448 9.38372 25.1317C8.1921 25.0757 7.37902 24.8876 6.6645 24.6109C5.91712 24.3302 5.24017 23.8895 4.68108 23.3196C4.11108 22.76 3.67002 22.0827 3.38867 21.3351C3.11204 20.6217 2.92389 19.8086 2.86789 18.6159C2.85541 18.3501 2.84421 18.0843 2.83429 17.8185L2.82869 17.6012C2.80806 16.7846 2.79872 15.9677 2.8007 15.1508V12.8482C2.79757 12.0313 2.80578 11.2144 2.82533 10.3977L2.83317 10.1805C2.84213 9.92848 2.85333 9.68098 2.86677 9.38307C2.92277 8.19033 3.11092 7.37837 3.38754 6.66385C3.66878 5.91562 4.11071 5.23819 4.6822 4.67931C5.24115 4.10979 5.91766 3.66911 6.6645 3.38802C7.37902 3.11139 8.19098 2.92324 9.38372 2.86725C9.68162 2.85381 9.93025 2.84261 10.1811 2.83365L10.3984 2.82693C11.215 2.80703 12.0319 2.79844 12.8488 2.80117L15.1514 2.80005ZM14.0001 8.39976C12.515 8.39976 11.0907 8.98973 10.0405 10.0399C8.99038 11.09 8.40041 12.5143 8.40041 13.9995C8.40041 15.4846 8.99038 16.9089 10.0405 17.9591C11.0907 19.0092 12.515 19.5992 14.0001 19.5992C15.4853 19.5992 16.9096 19.0092 17.9597 17.9591C19.0099 16.9089 19.5998 15.4846 19.5998 13.9995C19.5998 12.5143 19.0099 11.09 17.9597 10.0399C16.9096 8.98973 15.4853 8.39976 14.0001 8.39976ZM14.0001 10.6396C14.4413 10.6396 14.8783 10.7264 15.2859 10.8952C15.6936 11.064 16.064 11.3114 16.376 11.6233C16.6881 11.9353 16.9356 12.3056 17.1045 12.7132C17.2735 13.1208 17.3604 13.5577 17.3605 13.9989C17.3606 14.4401 17.2738 14.877 17.105 15.2847C16.9362 15.6924 16.6888 16.0628 16.3768 16.3748C16.0649 16.6869 15.6946 16.9344 15.287 17.1033C14.8793 17.2723 14.4425 17.3592 14.0012 17.3593C13.1102 17.3593 12.2556 17.0053 11.6255 16.3752C10.9954 15.7451 10.6414 14.8906 10.6414 13.9995C10.6414 13.1084 10.9954 12.2538 11.6255 11.6237C12.2556 10.9936 13.1102 10.6396 14.0012 10.6396M19.8809 6.71985C19.5097 6.71985 19.1536 6.86734 18.891 7.12988C18.6285 7.39242 18.481 7.74849 18.481 8.11978C18.481 8.49106 18.6285 8.84714 18.891 9.10968C19.1536 9.37221 19.5097 9.5197 19.8809 9.5197C20.2522 9.5197 20.6083 9.37221 20.8708 9.10968C21.1334 8.84714 21.2809 8.49106 21.2809 8.11978C21.2809 7.74849 21.1334 7.39242 20.8708 7.12988C20.6083 6.86734 20.2522 6.71985 19.8809 6.71985Z" fill="white"/>
</svg>
