<svg width="28" height="28" viewBox="0 0 28 28" fill="none" xmlns="http://www.w3.org/2000/svg">
<path d="M22.7112 2.80005C23.3713 2.80005 24.0043 3.06227 24.4711 3.52903C24.9378 3.99578 25.2 4.62884 25.2 5.28894V22.7112C25.2 23.3713 24.9378 24.0043 24.4711 24.4711C24.0043 24.9378 23.3713 25.2 22.7112 25.2H5.28894C4.62884 25.2 3.99578 24.9378 3.52903 24.4711C3.06227 24.0043 2.80005 23.3713 2.80005 22.7112V5.28894C2.80005 4.62884 3.06227 3.99578 3.52903 3.52903C3.99578 3.06227 4.62884 2.80005 5.28894 2.80005H22.7112ZM22.0889 22.0889V15.4934C22.0889 14.4174 21.6615 13.3855 20.9007 12.6247C20.1399 11.8639 19.108 11.4365 18.032 11.4365C16.9743 11.4365 15.7423 12.0836 15.1449 13.0543V11.6729H11.6729V22.0889H15.1449V15.9538C15.1449 14.9956 15.9165 14.2116 16.8747 14.2116C17.3368 14.2116 17.7799 14.3952 18.1067 14.7219C18.4334 15.0486 18.6169 15.4918 18.6169 15.9538V22.0889H22.0889ZM7.62849 9.71916C8.18297 9.71916 8.71474 9.49889 9.10682 9.10682C9.49889 8.71474 9.71916 8.18297 9.71916 7.62849C9.71916 6.47116 8.78583 5.52538 7.62849 5.52538C7.07071 5.52538 6.53578 5.74696 6.14137 6.14137C5.74696 6.53578 5.52538 7.07071 5.52538 7.62849C5.52538 8.78583 6.47116 9.71916 7.62849 9.71916ZM9.35827 22.0889V11.6729H5.91116V22.0889H9.35827Z" fill="white"/>
</svg>
