<svg width="1457" height="380" viewBox="0 0 1457 380" fill="none" xmlns="http://www.w3.org/2000/svg">
<path fill-rule="evenodd" clip-rule="evenodd" d="M749.288 158.196V231.848H774.137V283.984C774.137 294.933 771.693 299.878 769.652 302.099C767.813 304.101 764.53 305.804 757.785 305.804C751.039 305.804 747.757 304.101 745.917 302.099C743.877 299.878 741.432 294.933 741.432 283.984V96.1202C741.432 85.1826 743.873 80.0353 746.009 77.6556C747.912 75.5353 751.209 73.8036 757.785 73.8036C764.36 73.8036 767.657 75.5353 769.56 77.6556C771.697 80.0353 774.137 85.1826 774.137 96.1202V145.371H849.777V99.5992C849.777 69.9216 842.358 44.7384 826.004 26.8975C809.492 8.88448 785.528 0.152222 756.294 0.152222C727.059 0.152222 703.096 8.88448 686.584 26.8975C670.23 44.7384 662.811 69.9216 662.811 99.5992V280.505C662.811 310.183 670.23 335.366 686.584 353.207C703.096 371.22 727.059 379.952 756.294 379.952C785.528 379.952 809.492 371.22 826.004 353.207C842.358 335.366 849.777 310.183 849.777 280.505V158.196H749.288ZM1456.03 375.976H1373.66L1370.75 367.252C1369.3 362.908 1367.83 358.5 1366.84 351.609C1365.84 344.727 1365.35 335.6 1365.35 321.259V266.589C1365.35 251.256 1362.64 243.742 1359.54 240.018C1356.93 236.874 1352.22 234.333 1341.54 234.333H1334.63V375.976H1256.01V4.12817H1350.48C1380.43 4.12817 1404.42 11.0744 1420.74 27.5555C1437.05 44.017 1443.47 67.723 1443.47 96.1202V123.455C1443.47 153.524 1435.78 177.764 1417.96 193.654C1437.99 210.69 1443.97 237.963 1443.97 268.08V321.756C1443.97 338.666 1444.56 348.873 1448.99 359.334L1456.03 375.976ZM1334.63 160.681H1344.02C1352.72 160.681 1357.12 158.744 1359.55 156.283C1362.04 153.768 1364.85 148.31 1364.85 135.88V101.587C1364.85 90.0535 1362.8 84.3962 1360.72 81.7223C1359.19 79.7543 1356.38 77.7796 1348.99 77.7796H1334.63V160.681ZM1226.7 150.741H1151.65V77.7796H1246.08V4.12817H1073.03V375.976H1246.08V302.325H1151.65V224.393H1226.7V150.741ZM980.537 375.976L933.594 202.253V375.976H860.44V4.12817H950.175L985.185 133.945V4.12817H1057.84V375.976H980.537ZM572.641 4.12817H651.263V375.976H572.641V4.12817ZM489.134 122.509H564.774V99.5992C564.774 69.9721 557.505 44.8069 541.366 26.958C525.046 8.90802 501.307 0.152222 472.285 0.152222C443.263 0.152222 419.523 8.90802 403.203 26.958C387.065 44.8069 379.796 69.9721 379.796 99.5992C379.796 154.648 409.932 185.905 437.064 211.017C439.381 213.163 441.655 215.244 443.877 217.28L443.878 217.28C454.964 227.432 464.78 236.42 472.478 246.314C481.356 257.725 486.649 269.465 486.649 283.984C486.649 294.933 484.205 299.878 482.165 302.099C480.325 304.101 477.043 305.804 470.297 305.804C463.551 305.804 460.269 304.101 458.429 302.099C456.389 299.878 453.944 294.933 453.944 283.984V247.158H378.305V280.505C378.305 310.183 385.724 335.366 402.078 353.207C418.59 371.22 442.553 379.952 471.788 379.952C501.023 379.952 524.986 371.22 541.498 353.207C557.852 335.366 565.271 310.183 565.271 280.505C565.271 225.456 535.135 194.2 508.003 169.087C505.688 166.944 503.418 164.865 501.198 162.832L501.189 162.825L501.188 162.824C490.102 152.672 480.287 143.684 472.589 133.791C463.711 122.38 458.417 110.639 458.417 96.1202C458.417 84.9372 460.714 79.7538 462.7 77.4235C464.328 75.5137 467.223 73.8036 473.776 73.8036C480.328 73.8036 483.224 75.5137 484.851 77.4235C486.837 79.7538 489.134 84.9372 489.134 96.1202V122.509ZM357.446 150.741V224.393H282.4V302.325H376.829V375.976H203.778V4.12817H376.829V77.7796H282.4V150.741H357.446ZM0.903809 4.12817V375.976H99.3568C128.869 375.976 152.887 367.744 169.374 350.047C185.718 332.503 192.84 307.593 192.84 278.02V102.084C192.84 72.5109 185.718 47.6012 169.374 30.057C152.887 12.3606 128.869 4.12817 99.3568 4.12817H0.903809ZM98.3628 302.325H79.5252V77.7796H98.3628C105.1 77.7796 108.18 79.4739 109.879 81.3713C111.843 83.5645 114.218 88.5258 114.218 99.5992V280.505C114.218 291.578 111.843 296.54 109.879 298.733C108.18 300.63 105.1 302.325 98.3628 302.325Z" fill="#FF4F00"/>
</svg>
