<svg width="100" height="100" viewBox="0 0 100 100" fill="none" xmlns="http://www.w3.org/2000/svg">
<path d="M63.7059 35.2058C65.75 35.2058 67.4236 33.5499 67.4236 31.5205C67.4236 29.4911 65.75 27.8352 63.7059 27.8352C61.6618 27.8352 59.9883 29.4911 59.9883 31.5205C59.9883 33.5646 61.6442 35.2058 63.7059 35.2058Z" fill="white"/>
<path d="M60.0732 38.4324H67.2556V65.4412H60.0732V38.4324Z" fill="white"/>
<path d="M37.2208 56.3853H46.9385L49.5649 65.4323H56.9208L46.2385 29.9441H37.3091V33.447L27.9414 65.4323H34.5943L37.2208 56.3853ZM42.0355 36.2588L45.6267 50.1794H38.4473L42.0355 36.2588Z" fill="white"/>
<path d="M8.8291 9.75293V89.1853H89.9526V9.75293H8.8291ZM83.8703 82.9323H15.0291V16.0059H83.8703V82.9323Z" fill="white"/>
</svg>
