<svg width="67" height="74" viewBox="0 0 67 74" fill="none" xmlns="http://www.w3.org/2000/svg">
<path fill-rule="evenodd" clip-rule="evenodd" d="M40.1397 6.60013C38.5663 6.22866 36.9739 6.03121 35.3861 6.00332C30.5802 5.9204 25.8759 7.39182 21.9732 10.1966C21.9136 10.2394 21.8631 10.2935 21.8244 10.3558C21.7857 10.4181 21.7597 10.4874 21.7479 10.5598C21.736 10.6321 21.7385 10.7061 21.7553 10.7775C21.772 10.8489 21.8026 10.9163 21.8454 10.9758C21.8882 11.0354 21.9423 11.0859 22.0046 11.1246C22.067 11.1632 22.1363 11.1892 22.2087 11.2011C22.2811 11.2129 22.3551 11.2104 22.4265 11.1937C22.4979 11.177 22.5653 11.1463 22.6249 11.1035C25.0889 9.33208 27.9048 8.1102 30.882 7.52052C33.8592 6.93084 36.9284 6.98712 39.8819 7.68555C39.9532 7.70247 40.0271 7.70519 40.0995 7.69354C40.1718 7.6819 40.2412 7.65613 40.3035 7.6177C40.3659 7.57927 40.4201 7.52893 40.463 7.46956C40.506 7.41019 40.5368 7.34295 40.5537 7.27168C40.5706 7.20041 40.5733 7.12651 40.5617 7.05419C40.55 6.98187 40.5243 6.91255 40.4858 6.85019C40.4474 6.78784 40.397 6.73366 40.3376 6.69075C40.2782 6.64785 40.211 6.61705 40.1397 6.60013ZM43.4081 7.64539C43.34 7.61638 43.2668 7.60121 43.1927 7.60077C43.0619 7.59961 42.9349 7.64445 42.8338 7.72744C42.7326 7.81043 42.6639 7.9263 42.6396 8.0548C42.6153 8.1833 42.6369 8.31626 42.7007 8.43044C42.7645 8.54463 42.8663 8.63278 42.9885 8.67949C47.2569 10.4146 50.8436 13.4929 53.2054 17.4482C55.5672 21.4034 56.5756 26.0203 56.0778 30.5998C56.0685 30.6732 56.074 30.7478 56.0938 30.8192C56.1137 30.8905 56.1476 30.9572 56.1935 31.0153C56.2394 31.0734 56.2965 31.1218 56.3613 31.1577C56.4261 31.1935 56.4974 31.2161 56.5711 31.2241C56.6447 31.2321 56.7192 31.2254 56.7902 31.2043C56.8613 31.1832 56.9274 31.1482 56.9847 31.1012C57.042 31.0543 57.0894 30.9965 57.1242 30.9311C57.1589 30.8657 57.1802 30.794 57.187 30.7202C57.71 25.8997 56.648 21.0401 54.1619 16.8767C51.6758 12.7133 47.9008 9.47272 43.4081 7.64539ZM19.9194 12.4557C19.8249 12.395 19.7142 12.3643 19.6019 12.3674C19.4571 12.3713 19.3195 12.4324 19.2181 12.5359C16.678 15.076 14.7887 18.1916 13.7109 21.6178C12.6331 25.0441 12.3986 28.6799 13.0272 32.2162C13.0378 32.2902 13.0632 32.3614 13.102 32.4254C13.1407 32.4895 13.1919 32.545 13.2525 32.5889C13.3132 32.6327 13.382 32.6639 13.455 32.6806C13.5279 32.6973 13.6035 32.6992 13.6772 32.6861C13.7508 32.673 13.8211 32.6452 13.8839 32.6044C13.9466 32.5636 14.0005 32.5105 14.0423 32.4485C14.0841 32.3864 14.1129 32.3166 14.1272 32.2431C14.1415 32.1697 14.1408 32.0941 14.1252 32.0209C13.5277 28.6614 13.7504 25.2073 14.7744 21.9522C15.7984 18.6972 17.5935 15.7374 20.007 13.3246C20.0875 13.2462 20.1424 13.1454 20.1646 13.0354C20.1869 12.9253 20.1754 12.8111 20.1316 12.7077C20.0878 12.6042 20.0138 12.5164 19.9194 12.4557ZM38.7292 12.8839C37.4471 12.5738 36.156 12.431 34.8806 12.4422C32.1154 12.4638 29.4039 13.2081 27.0144 14.5992C24.6249 15.9904 22.6402 17.9812 21.2568 20.3748C21.2164 20.4382 21.1893 20.5092 21.1771 20.5835C21.1649 20.6577 21.1678 20.7336 21.1857 20.8067C21.2036 20.8798 21.2361 20.9484 21.2813 21.0086C21.3264 21.0688 21.3833 21.1192 21.4484 21.1569C21.5136 21.1945 21.5857 21.2186 21.6604 21.2277C21.7351 21.2368 21.8108 21.2306 21.8831 21.2097C21.9554 21.1887 22.0227 21.1534 22.0809 21.1057C22.1391 21.0581 22.1871 20.9992 22.222 20.9325C23.8147 18.1741 26.2579 16.0052 29.1862 14.7505C32.1145 13.4957 35.3704 13.2225 38.467 13.9716C41.5638 14.7192 44.3351 16.4491 46.3664 18.9026C48.3976 21.3561 49.5795 24.4012 49.7351 27.5822C49.7389 27.6555 49.757 27.7273 49.7885 27.7935C49.82 27.8598 49.8642 27.9192 49.9187 27.9683C49.9731 28.0175 50.0367 28.0554 50.1059 28.08C50.175 28.1046 50.2483 28.1153 50.3215 28.1116C50.3948 28.1078 50.4666 28.0897 50.5329 28.0582C50.5991 28.0267 50.6586 27.9825 50.7077 27.9281C50.7569 27.8736 50.7948 27.8101 50.8194 27.7409C50.844 27.6719 50.8548 27.5986 50.851 27.5253C50.6817 24.1039 49.4097 20.8291 47.2248 18.1901C45.04 15.5512 42.0597 13.6897 38.7292 12.8839ZM35.6795 18.9168C35.2745 18.8878 34.866 18.8811 34.4599 18.9045V18.9067C33.2191 18.9782 32.0048 19.2944 30.8868 19.8371C30.8209 19.869 30.7619 19.9136 30.7132 19.9683C30.6645 20.0231 30.627 20.0869 30.603 20.1561C30.579 20.2253 30.5688 20.2985 30.5731 20.3716C30.5774 20.4448 30.596 20.5163 30.6279 20.5822C30.6599 20.6482 30.7045 20.7072 30.7593 20.7558C30.814 20.8045 30.8778 20.842 30.947 20.866C31.0163 20.89 31.0895 20.9002 31.1627 20.8959C31.2358 20.8916 31.3074 20.873 31.3734 20.8411C32.6862 20.2041 34.1437 19.924 35.5992 20.0292C37.0547 20.1344 38.4568 20.621 39.6643 21.4401C39.7249 21.4836 39.7936 21.5146 39.8664 21.5311C39.9391 21.5476 40.0145 21.5494 40.0879 21.5363C40.1614 21.5232 40.2314 21.4955 40.294 21.4549C40.3566 21.4142 40.4103 21.3615 40.4521 21.2997C40.4939 21.2379 40.5229 21.1683 40.5374 21.0952C40.5518 21.022 40.5514 20.9467 40.5362 20.8736C40.521 20.8006 40.4914 20.7314 40.4489 20.67C40.4065 20.6087 40.3522 20.5564 40.2892 20.5164C38.92 19.5874 37.33 19.0357 35.6795 18.9168ZM29.0399 21.5691C28.9449 21.5083 28.8337 21.4777 28.7209 21.4814C28.5756 21.4861 28.4379 21.5473 28.337 21.652C26.5695 23.4179 25.5764 25.813 25.5764 28.3118V32.0087C25.5764 33.6899 25.3289 35.3261 24.8632 36.8806L26.2687 35.9015C26.5467 34.6411 26.6922 33.3384 26.6922 32.0098V28.3118C26.6927 26.1096 27.5681 23.9977 29.126 22.4407C29.2073 22.3625 29.2629 22.2615 29.2856 22.1511C29.3083 22.0406 29.297 21.9258 29.2531 21.8219C29.2092 21.718 29.1349 21.6299 29.0399 21.5691ZM37.8053 31.5714C37.5128 35.3013 36.7106 38.9597 35.4315 42.4476L35.7322 37.5905C36.2092 35.5894 36.5317 33.5482 36.6939 31.4844C36.7029 31.3467 36.7626 31.2172 36.8615 31.121C36.9605 31.0248 37.0916 30.9686 37.2295 30.9634C37.3087 30.9606 37.3875 30.9746 37.4609 31.0046C37.5342 31.0346 37.6003 31.0798 37.6548 31.1373C37.7093 31.1949 37.7509 31.2633 37.7768 31.3382C37.8028 31.413 37.8125 31.4925 37.8053 31.5714ZM33.1387 28.314L33.108 31.137L31.9611 31.936C31.9729 31.7454 31.9831 31.5547 31.9915 31.3639L32.025 28.3118C32.025 26.6764 33.3641 25.3355 35 25.3355V25.3378C35.7881 25.341 36.5431 25.6558 37.1 26.2133C37.6569 26.7709 37.9706 27.5261 37.9727 28.314C37.9727 28.4619 37.9139 28.6038 37.8092 28.7084C37.7046 28.813 37.5627 28.8718 37.4147 28.8718C37.2667 28.8718 37.1248 28.813 37.0202 28.7084C36.9156 28.6038 36.8568 28.4619 36.8568 28.314C36.858 28.0695 36.8107 27.8272 36.7177 27.6011C36.6247 27.3749 36.4879 27.1694 36.315 26.9965C36.1422 26.8235 35.9368 26.6864 35.7107 26.5932C35.4846 26.5 35.2423 26.4524 34.9977 26.4533C34.7532 26.4524 34.5108 26.5 34.2847 26.5932C34.0586 26.6864 33.8532 26.8235 33.6804 26.9965C33.5076 27.1694 33.3707 27.3749 33.2777 27.6011C33.1848 27.8272 33.1375 28.0695 33.1387 28.314ZM42.6476 22.9137C42.5653 22.8688 42.473 22.8455 42.3793 22.8457C42.2776 22.8457 42.178 22.8735 42.091 22.926C42.004 22.9785 41.933 23.0538 41.8857 23.1437C41.8384 23.2336 41.8166 23.3347 41.8225 23.4361C41.8285 23.5375 41.862 23.6354 41.9195 23.7191C42.9632 25.2901 43.4405 27.1696 43.2731 29.048C43.2598 29.1954 43.3055 29.342 43.4003 29.4556C43.4951 29.5692 43.6312 29.6405 43.7786 29.6538C43.926 29.6671 44.0726 29.6213 44.1862 29.5266C44.2999 29.4318 44.3712 29.2958 44.3845 29.1484C44.5749 27.0173 44.0337 24.8849 42.8502 23.1022C42.7995 23.0234 42.7299 22.9585 42.6476 22.9137ZM20.4451 23.8323C20.3641 23.7954 20.2755 23.7784 20.1867 23.7827L20.1822 23.785C20.0631 23.7911 19.9491 23.8353 19.8569 23.911C19.7647 23.9866 19.6992 24.0899 19.67 24.2055C19.2404 25.8063 19.0663 27.4673 19.1511 29.1228C19.1807 30.0562 19.167 30.6726 19.1506 31.4119C19.1361 32.0677 19.1194 32.8202 19.1288 33.9765V33.9876C19.1813 36.0871 18.0632 38.0471 16.1996 39.1024C16.072 39.1759 15.9786 39.2968 15.9399 39.4389C15.9011 39.5809 15.9201 39.7325 15.9927 39.8606C16.0654 39.9887 16.1857 40.0829 16.3275 40.1227C16.4693 40.1625 16.6211 40.1446 16.7498 40.0729C18.9614 38.8201 20.3083 36.473 20.2447 33.9597C20.236 32.8447 20.252 32.1068 20.2662 31.4579L20.2662 31.4577C20.2828 30.6966 20.2967 30.058 20.2648 29.077V29.0659C20.186 27.5269 20.3495 25.985 20.7491 24.4967C20.7741 24.4113 20.7783 24.3212 20.7614 24.2339C20.7445 24.1466 20.707 24.0646 20.652 23.9947C20.5969 23.9249 20.526 23.8692 20.4451 23.8323ZM50.5049 30.2341C50.4352 30.2072 50.361 30.1947 50.2864 30.197C50.1386 30.2017 49.9987 30.2648 49.8974 30.3726C49.7961 30.4803 49.7418 30.6238 49.7463 30.7715C49.8347 35.8196 49.0487 40.8448 47.423 45.6249C47.3994 45.6943 47.3897 45.7676 47.3945 45.8407C47.3993 45.9138 47.4184 45.9853 47.4508 46.051C47.4831 46.1167 47.5281 46.1754 47.5832 46.2238C47.6383 46.2721 47.7024 46.3091 47.7717 46.3327C47.8411 46.3563 47.9145 46.366 47.9876 46.3612C48.0608 46.3565 48.1322 46.3374 48.198 46.305C48.2637 46.2726 48.3225 46.2276 48.3708 46.1726C48.4192 46.1175 48.4562 46.0535 48.4798 45.9841C50.148 41.0824 50.9526 35.9287 50.8622 30.7526C50.8619 30.678 50.8467 30.6042 50.8174 30.5356C50.7881 30.467 50.7454 30.405 50.6917 30.3532C50.638 30.3014 50.5745 30.2609 50.5049 30.2341ZM44.0765 31.845C44.0077 31.8156 43.9337 31.8003 43.8589 31.8001C43.7111 31.7998 43.5693 31.8581 43.4645 31.9623C43.3597 32.0664 43.3005 32.2079 43.2999 32.3556C43.1881 38.1948 41.8865 43.95 39.4746 49.2693C39.4412 49.3364 39.4216 49.4096 39.417 49.4844C39.4125 49.5592 39.4231 49.6342 39.4481 49.7048C39.4732 49.7755 39.5123 49.8403 39.563 49.8955C39.6137 49.9507 39.6751 49.9952 39.7434 50.0261C39.8116 50.0571 39.8855 50.074 39.9604 50.0758C40.0354 50.0777 40.1099 50.0643 40.1796 50.0367C40.2493 50.0091 40.3128 49.9677 40.3661 49.915C40.4194 49.8623 40.4616 49.7994 40.4901 49.7301C42.9648 44.2729 44.3002 38.3686 44.4146 32.3779C44.4173 32.3032 44.4049 32.2287 44.3783 32.1588C44.3516 32.089 44.3111 32.0252 44.2593 31.9713C44.2074 31.9174 44.1453 31.8744 44.0765 31.845Z" fill="#F3F2EE"/>
<g filter="url(#filter0_dddddd_39_234)">
<path fill-rule="evenodd" clip-rule="evenodd" d="M34.8722 30.9879L28.5591 41.9178C28.0802 42.7473 26.9459 43.0422 26.2285 43.6768C26.1012 43.7894 25.9898 43.924 25.9003 44.079C25.4489 44.8607 25.7261 45.8657 26.5193 46.3237C27.3125 46.7817 28.3215 46.5192 28.7728 45.7374C28.8623 45.5824 28.9232 45.4187 28.957 45.2521C29.1479 44.3135 28.8361 43.1837 29.315 42.3542L35.2753 31.1895L33.1842 50.1385C33.111 50.6608 32.8455 51.137 32.4395 51.4737L27.1439 55.8668C26.4624 56.4321 25.5011 56.5134 24.7343 56.0707L21.8903 54.4287L21.8525 54.4069L19.0084 52.7649C18.2416 52.3222 17.8315 51.449 17.9803 50.5762L19.1374 43.7911C19.2258 43.2726 19.5041 42.8056 19.918 42.4812L34.8722 30.9879Z" fill="#FF4F00"/>
</g>
<defs>
<filter id="filter0_dddddd_39_234" x="0.899059" y="26.3181" width="39.6357" height="47.6769" filterUnits="userSpaceOnUse" color-interpolation-filters="sRGB">
<feFlood flood-opacity="0" result="BackgroundImageFix"/>
<feColorMatrix in="SourceAlpha" type="matrix" values="0 0 0 0 0 0 0 0 0 0 0 0 0 0 0 0 0 0 127 0" result="hardAlpha"/>
<feOffset dx="-0.109183" dy="0.120101"/>
<feGaussianBlur stdDeviation="0.21949"/>
<feColorMatrix type="matrix" values="0 0 0 0 0 0 0 0 0 0 0 0 0 0 0 0 0 0 0.0288889 0"/>
<feBlend mode="normal" in2="BackgroundImageFix" result="effect1_dropShadow_39_234"/>
<feColorMatrix in="SourceAlpha" type="matrix" values="0 0 0 0 0 0 0 0 0 0 0 0 0 0 0 0 0 0 127 0" result="hardAlpha"/>
<feOffset dx="-0.480405" dy="0.528445"/>
<feGaussianBlur stdDeviation="0.454474"/>
<feColorMatrix type="matrix" values="0 0 0 0 0 0 0 0 0 0 0 0 0 0 0 0 0 0 0.0471111 0"/>
<feBlend mode="normal" in2="effect1_dropShadow_39_234" result="effect2_dropShadow_39_234"/>
<feColorMatrix in="SourceAlpha" type="matrix" values="0 0 0 0 0 0 0 0 0 0 0 0 0 0 0 0 0 0 127 0" result="hardAlpha"/>
<feOffset dx="-1.17918" dy="1.29709"/>
<feGaussianBlur stdDeviation="0.906365"/>
<feColorMatrix type="matrix" values="0 0 0 0 0 0 0 0 0 0 0 0 0 0 0 0 0 0 0.06 0"/>
<feBlend mode="normal" in2="effect2_dropShadow_39_234" result="effect3_dropShadow_39_234"/>
<feColorMatrix in="SourceAlpha" type="matrix" values="0 0 0 0 0 0 0 0 0 0 0 0 0 0 0 0 0 0 127 0" result="hardAlpha"/>
<feOffset dx="-2.271" dy="2.4981"/>
<feGaussianBlur stdDeviation="1.77658"/>
<feColorMatrix type="matrix" values="0 0 0 0 0 0 0 0 0 0 0 0 0 0 0 0 0 0 0.0728889 0"/>
<feBlend mode="normal" in2="effect3_dropShadow_39_234" result="effect4_dropShadow_39_234"/>
<feColorMatrix in="SourceAlpha" type="matrix" values="0 0 0 0 0 0 0 0 0 0 0 0 0 0 0 0 0 0 127 0" result="hardAlpha"/>
<feOffset dx="-3.8214" dy="4.20354"/>
<feGaussianBlur stdDeviation="3.26653"/>
<feColorMatrix type="matrix" values="0 0 0 0 0 0 0 0 0 0 0 0 0 0 0 0 0 0 0.0911111 0"/>
<feBlend mode="normal" in2="effect4_dropShadow_39_234" result="effect5_dropShadow_39_234"/>
<feColorMatrix in="SourceAlpha" type="matrix" values="0 0 0 0 0 0 0 0 0 0 0 0 0 0 0 0 0 0 127 0" result="hardAlpha"/>
<feOffset dx="-5.89588" dy="6.48546"/>
<feGaussianBlur stdDeviation="5.57763"/>
<feColorMatrix type="matrix" values="0 0 0 0 0 0 0 0 0 0 0 0 0 0 0 0 0 0 0.12 0"/>
<feBlend mode="normal" in2="effect5_dropShadow_39_234" result="effect6_dropShadow_39_234"/>
<feBlend mode="normal" in="SourceGraphic" in2="effect6_dropShadow_39_234" result="shape"/>
</filter>
</defs>
</svg>
