<svg width="100" height="100" viewBox="0 0 100 100" fill="none" xmlns="http://www.w3.org/2000/svg">
<path d="M39.8562 9.11763V13.418H28.8598V0.0979004H39.8562V4.81079H33.5727V9.11763H39.8562ZM51.1603 4.81079H55.5533V0.0979004H44.5557C44.5557 0.0979004 44.5557 2.46353 44.5557 4.81079C46.0269 6.28208 46.7941 6.98638 48.9221 9.11431C47.6781 9.11431 44.5557 9.11841 44.5557 9.11841V13.418H55.5533V9.11763L51.1603 4.81079ZM66.7473 4.81079H71.1398V0.0979004H60.1426C60.1426 0.0979004 60.1426 2.46353 60.1426 4.81079C61.6135 6.28208 62.381 6.98638 64.5088 9.11431C63.2656 9.11431 60.1426 9.11841 60.1426 9.11841V13.418H71.14V9.11763L66.7473 4.81079ZM85.624 19.7485L78.9437 92.109L49.9998 99.902L21.0553 92.109L14.376 19.7485H85.624ZM72.1635 34.4618H49.9736H27.3916L28.4715 43.1999H49.9736H51.1814L49.9736 43.7026L29.2574 52.3309L29.9445 60.8719L49.9736 60.937L60.7086 60.9711L60.0209 72.36L49.9736 75.1889V75.1799L49.8912 75.2026L40.1873 72.753L39.5984 65.6836H39.5664H30.5654H30.5338L31.7119 79.3313L49.9736 84.7315V84.7217L50.0064 84.7315L68.1705 79.4295L70.5273 52.3311H49.9736H49.9228L49.9736 52.3092L71.2795 43.2L72.1635 34.4618Z" fill="white"/>
</svg>
