<svg width="100" height="100" viewBox="0 0 100 100" fill="none" xmlns="http://www.w3.org/2000/svg">
<path d="M26.25 26.3125C26.25 23.1631 27.5011 20.1426 29.7281 17.9156C31.9551 15.6886 34.9756 14.4375 38.125 14.4375H50V38.1875H38.125C34.9756 38.1875 31.9551 36.9364 29.7281 34.7094C27.5011 32.4824 26.25 29.4619 26.25 26.3125Z" stroke="white" stroke-width="5" stroke-linecap="round" stroke-linejoin="round"/>
<path d="M50 14.4375H61.875C63.4344 14.4375 64.9786 14.7447 66.4194 15.3414C67.8601 15.9382 69.1692 16.8129 70.2719 17.9156C71.3746 19.0183 72.2493 20.3274 72.8461 21.7681C73.4428 23.2089 73.75 24.7531 73.75 26.3125C73.75 27.8719 73.4428 29.4161 72.8461 30.8569C72.2493 32.2976 71.3746 33.6067 70.2719 34.7094C69.1692 35.8121 67.8601 36.6868 66.4194 37.2836C64.9786 37.8803 63.4344 38.1875 61.875 38.1875H50V14.4375Z" stroke="white" stroke-width="5" stroke-linecap="round" stroke-linejoin="round"/>
<path d="M50 50.0625C50 48.5031 50.3072 46.9589 50.9039 45.5181C51.5007 44.0774 52.3754 42.7683 53.4781 41.6656C54.5808 40.5629 55.8899 39.6882 57.3306 39.0914C58.7714 38.4947 60.3156 38.1875 61.875 38.1875C63.4344 38.1875 64.9786 38.4947 66.4194 39.0914C67.8601 39.6882 69.1692 40.5629 70.2719 41.6656C71.3746 42.7683 72.2493 44.0774 72.8461 45.5181C73.4428 46.9589 73.75 48.5031 73.75 50.0625C73.75 51.6219 73.4428 53.1661 72.8461 54.6069C72.2493 56.0476 71.3746 57.3567 70.2719 58.4594C69.1692 59.5621 67.8601 60.4368 66.4194 61.0336C64.9786 61.6303 63.4344 61.9375 61.875 61.9375C60.3156 61.9375 58.7714 61.6303 57.3306 61.0336C55.8899 60.4368 54.5808 59.5621 53.4781 58.4594C52.3754 57.3567 51.5007 56.0476 50.9039 54.6069C50.3072 53.1661 50 51.6219 50 50.0625Z" stroke="white" stroke-width="5" stroke-linecap="round" stroke-linejoin="round"/>
<path d="M26.25 73.8125C26.25 70.6631 27.5011 67.6426 29.7281 65.4156C31.9551 63.1886 34.9756 61.9375 38.125 61.9375H50V73.8125C50 76.9619 48.7489 79.9824 46.5219 82.2094C44.2949 84.4364 41.2744 85.6875 38.125 85.6875C34.9756 85.6875 31.9551 84.4364 29.7281 82.2094C27.5011 79.9824 26.25 76.9619 26.25 73.8125Z" stroke="white" stroke-width="5" stroke-linecap="round" stroke-linejoin="round"/>
<path d="M26.25 50.0625C26.25 46.9131 27.5011 43.8926 29.7281 41.6656C31.9551 39.4386 34.9756 38.1875 38.125 38.1875H50V61.9375H38.125C34.9756 61.9375 31.9551 60.6864 29.7281 58.4594C27.5011 56.2324 26.25 53.2119 26.25 50.0625Z" stroke="white" stroke-width="5" stroke-linecap="round" stroke-linejoin="round"/>
</svg>
