<svg width="100" height="100" viewBox="0 0 100 100" fill="none" xmlns="http://www.w3.org/2000/svg">
<g clip-path="url(#clip0_298_265)">
<mask id="mask0_298_265" style="mask-type:luminance" maskUnits="userSpaceOnUse" x="0" y="0" width="100" height="100">
<path d="M100 0H0V100H100V0Z" fill="white"/>
</mask>
<g mask="url(#mask0_298_265)">
<path d="M21.1689 0H25.6762V4.45312H29.7992V0H34.3066V13.4852H29.7994V8.96954H25.6764V13.4852H21.1691L21.1689 0Z" fill="white"/>
<path d="M40.2346 4.47188H36.2666V0H48.712V4.47188H44.742V13.4852H40.2348L40.2346 4.47188Z" fill="white"/>
<path d="M50.6865 0H55.3865L58.2774 4.73829L61.1653 0H65.8669V13.4852H61.3782V6.80117L58.2774 11.5959H58.1999L55.0965 6.80117V13.4852H50.6865V0Z" fill="white"/>
<path d="M68.1104 0H72.6191V9.02775H78.9574V13.4852H68.1104V0Z" fill="white"/>
<path fill-rule="evenodd" clip-rule="evenodd" d="M21.0247 91.9683L12.5 19.6523H87.5L78.9696 91.957L49.9571 99.9999L21.0247 91.9683ZM38.2643 52.3862L37.4538 43.3037H71.3929L72.1871 34.4344H27.7608L30.153 61.2553H60.8908L59.8617 72.7578L49.9696 75.4278L49.9625 75.4308L40.0849 72.7637L39.4535 65.6899H30.5501L31.7927 79.6162L49.9608 84.6595L68.1521 79.6158L70.3696 54.7678L70.5858 52.3862H38.2643Z" fill="white"/>
</g>
</g>
<defs>
<clipPath id="clip0_298_265">
<rect width="100" height="100" fill="white"/>
</clipPath>
</defs>
</svg>
