<svg width="100" height="100" viewBox="0 0 100 100" fill="none" xmlns="http://www.w3.org/2000/svg">
<path d="M15.625 15.625V84.375H84.375V15.625H15.625ZM21.875 21.875H78.125V78.125H21.875V21.875ZM63.2629 46.875C58.8098 46.875 55.9326 49.7254 55.9326 53.4973C55.9326 57.5942 58.3349 59.5524 61.9568 61.0962L63.208 61.6333C65.4955 62.6427 66.8579 63.2317 66.8579 64.9536C66.8579 66.4067 65.5242 67.45 63.446 67.45C60.9835 67.45 59.5832 66.1452 58.5144 64.3921L54.4189 66.7358C55.8721 69.6452 58.8995 71.875 63.562 71.875C68.312 71.875 71.875 69.4112 71.875 64.8987C71.875 60.6831 69.4698 58.8101 65.1917 57.0007L63.9465 56.4636C61.7809 55.5136 60.8582 54.8901 60.8582 53.4058C60.8582 52.187 61.7786 51.239 63.2629 51.239C64.7192 51.239 65.6353 51.862 66.4978 53.4058L70.4224 50.885C68.7599 47.9756 66.4692 46.875 63.2629 46.875ZM44.9829 47.1741V64.2456C44.9829 66.7394 43.9134 67.3889 42.2791 67.3889C40.5572 67.3889 39.8161 66.204 39.0442 64.8071L34.9487 67.2729C36.1362 69.7979 38.4772 71.875 42.4866 71.875C46.9397 71.875 50 69.4974 50 64.3005V47.1741H44.9829Z" fill="white"/>
</svg>
