<svg width="100" height="100" viewBox="0 0 100 100" fill="none" xmlns="http://www.w3.org/2000/svg">
<g clip-path="url(#clip0_298_248)">
<path d="M74.2156 93.7657C73.8438 93.9626 73.875 94.0251 74.2312 93.8438C74.3469 93.7969 74.4438 93.7313 74.5281 93.6532C74.5281 93.5876 74.5281 93.5876 74.2156 93.7657ZM74.9656 93.3594C74.7875 93.5063 74.7875 93.5063 75 93.4094C75.1125 93.3438 75.2125 93.2813 75.2125 93.2626C75.2125 93.1782 75.1625 93.1969 74.9656 93.3594ZM75.4531 93.0657C75.275 93.2126 75.275 93.2126 75.4875 93.1157C75.6031 93.0501 75.7 92.9813 75.7 92.9657C75.7 92.8876 75.65 92.9032 75.4531 93.0657ZM75.9469 92.7751C75.7687 92.9219 75.7688 92.9219 75.975 92.8219C76.0906 92.7594 76.1875 92.6938 76.1875 92.6751C76.1875 92.5969 76.1375 92.6126 75.9469 92.7751ZM76.6125 92.3344C76.2719 92.5626 76.1531 92.7094 76.4656 92.5469C76.675 92.4188 77.0312 92.1376 76.9687 92.1376C76.8344 92.1876 76.7219 92.2719 76.6094 92.3344H76.6125ZM46.7281 0.0344434C46.5 0.0500684 45.8156 0.112568 45.2156 0.162568C31.0031 1.45007 17.7063 9.10007 9.27813 20.8844C4.61875 27.3438 1.59375 34.8469 0.453125 42.7251C0.05 45.4751 0 46.2876 0 50.0157C0 53.7407 0.05 54.5407 0.453125 57.2907C3.175 76.0751 16.5375 91.8438 34.65 97.6876C37.9094 98.7282 41.325 99.4469 45.2156 99.8876C46.7281 100.05 53.2688 100.05 54.7813 99.8876C61.5063 99.1376 67.1844 97.4782 72.8031 94.6126C73.6656 94.1751 73.8281 94.0594 73.7125 93.9626C70.9625 90.3344 68.2625 86.7032 65.5594 83.0407L57.5688 72.2501L47.5594 57.4219C44.2219 52.4594 40.8719 47.5094 37.4687 42.5969C37.4344 42.5969 37.3906 49.1876 37.3719 57.2251C37.3375 71.3032 37.3375 71.8751 37.1594 72.2001C36.9812 72.5907 36.6875 72.9157 36.2969 73.0969C35.9875 73.2438 35.7094 73.2751 34.2313 73.2751H32.5406L32.1 73.0001C31.825 72.8219 31.5969 72.5751 31.45 72.2844L31.2375 71.8438L31.2531 52.2469L31.2875 32.6501L31.5969 32.2594C31.7938 32.0188 32.0375 31.8219 32.3125 31.6751C32.7219 31.4782 32.8844 31.4469 34.575 31.4469C36.5594 31.4469 36.8875 31.5251 37.4094 32.0969C41.4594 38.1344 45.4969 44.1876 49.4687 50.2594C55.9656 60.1094 64.8344 73.5501 69.1938 80.1438L77.1219 92.1407L77.5125 91.8813C81.3219 89.3407 84.7875 86.3157 87.7781 82.8657C94.0781 75.6532 98.1656 66.7813 99.55 57.3126C99.9531 54.5626 100.003 53.7469 100.003 50.0219C100.003 46.2938 99.9531 45.4969 99.55 42.7469C96.8281 23.9626 83.4656 8.19382 65.3531 2.34694C61.9656 1.27507 58.4812 0.543818 54.9531 0.168818C54.0062 0.0719435 47.5438 -0.0436815 46.7313 0.0406935L46.7281 0.0344434ZM67.1875 30.2751C67.6594 30.5001 68.0156 30.9251 68.1781 31.4126C68.2625 31.6751 68.2781 37.1094 68.2625 49.3501L68.2281 66.9251L65.1375 62.1751L62.0281 57.4219V44.6626C62.0281 36.3907 62.0625 31.7532 62.1063 31.5251C62.2531 31.0032 62.6094 30.5657 63.0844 30.2907C63.4719 30.0938 63.6219 30.0782 65.1688 30.0782C66.6156 30.0782 66.8625 30.0938 67.1875 30.2751Z" fill="white"/>
</g>
<defs>
<clipPath id="clip0_298_248">
<rect width="100" height="100" fill="white"/>
</clipPath>
</defs>
</svg>
