<svg width="100" height="100" viewBox="0 0 100 100" fill="none" xmlns="http://www.w3.org/2000/svg">
<path d="M10.5 11.25V90.8706H91.4706V11.25H10.5ZM85.0294 84.5382H16.9382V17.5824H85.0294V84.5382Z" fill="white"/>
<path fill-rule="evenodd" clip-rule="evenodd" d="M29 32.2185C29 31.9813 29.0575 31.8017 29.3555 31.8017C31.6644 31.6831 35.0433 31.6221 38.5982 31.6221C48.552 31.6221 52.8753 37.0795 52.8753 44.0746C52.8753 53.2002 46.2754 57.1163 38.1566 57.1163C37.4148 57.1163 36.9365 57.0981 36.5014 57.0816H36.5013H36.5013H36.5013H36.5012C36.1381 57.0678 35.8049 57.0552 35.3737 57.0552V70.8622C35.3737 71.1604 35.2552 71.2789 34.9572 71.2789H29.4129C29.1185 71.2789 29 71.1604 29 70.8622V32.2185ZM58.3549 48.0446C58.3549 47.6314 58.3549 46.5643 58.1754 44.5488C58.1754 44.2506 58.2185 44.1895 58.4554 44.0746C62.6467 42.4632 67.0936 41.6199 71.5835 41.5848C71.8815 41.5848 72 41.6423 72 41.9405V47.1571C72 47.4518 71.9031 47.5128 71.605 47.5128C69.3572 47.3943 66.0608 47.6925 64.8184 48.2242V70.8622C64.8184 71.1604 64.6999 71.2789 64.4018 71.2789H58.7678C58.4734 71.2789 58.3549 71.1604 58.3549 70.8622V48.0446ZM35.3735 51.3068C36.203 51.3643 36.8529 51.3643 38.2749 51.3643C42.4833 51.3643 46.4188 49.8841 46.4188 44.1931C46.4188 39.6303 43.6072 37.3166 38.8099 37.3166C37.3879 37.3166 36.0234 37.3741 35.3735 37.4352V51.3068Z" fill="white"/>
</svg>
