<svg width="100" height="100" viewBox="0 0 100 100" fill="none" xmlns="http://www.w3.org/2000/svg">
<path d="M10.459 11.3088V90.9294H91.4296V11.3088H10.459ZM84.9884 84.5971H16.8972V17.6412H84.9884V84.5971Z" fill="white"/>
<path d="M48.6911 33.6529C46.6528 31.8911 43.6146 30.8911 39.3587 30.8911C35.144 30.8911 30.0264 31.0264 30.0264 31.0264V63.6823H36.8675V53.1882C36.8675 53.1882 38.0646 53.1735 39.3587 53.1205C44.044 52.9235 46.7881 51.5058 49.144 49.1088C50.9558 47.2529 51.9528 44.6088 51.9528 41.3823C51.9528 38.1558 50.6381 35.3176 48.6911 33.6529ZM39.1764 47.397C38.0734 47.4088 37.6087 47.4441 36.8646 47.3735V36.097C36.8646 36.097 38.3146 36.047 39.7205 36.097C43.244 36.2264 45.1117 38.7146 45.1117 41.747C45.1117 45.1235 42.847 47.3529 39.1764 47.397Z" fill="white"/>
<path d="M65.3089 48.397C62.353 47.35 61.4148 46.7529 61.4148 45.6059C61.4148 44.3617 62.4501 43.6147 64.2736 43.6147C66.3413 43.6147 69.4707 44.95 70.556 45.55V40.047C69.0795 39.3 66.8354 38.3823 64.0266 38.3823C58.0648 38.3823 54.2207 41.8206 54.2207 46.4059C54.1707 49.2441 56.0913 51.2735 61.0707 52.9676C63.8795 53.9147 64.6177 55.2235 64.6177 56.4706C64.6177 57.7176 63.6824 58.5147 61.4148 58.5147C59.1971 58.5147 55.9442 57.247 54.5648 56.4029V61.8353C56.3883 62.8294 59.0295 63.7735 61.4148 63.847C68.3648 64.0647 71.8589 60.4588 71.8589 55.9235C71.8089 52.3353 69.8883 49.9941 65.306 48.4L65.3089 48.397Z" fill="white"/>
</svg>
