<svg width="100" height="100" viewBox="0 0 100 100" fill="none" xmlns="http://www.w3.org/2000/svg">
<g clip-path="url(#clip0_298_243)">
<path d="M49.9997 42.1249C51.5372 42.125 53.0402 42.58 54.3197 43.4325C55.5992 44.285 56.5978 45.497 57.1899 46.9159C57.782 48.3348 57.9411 49.8972 57.6472 51.4063C57.3532 52.9154 56.6194 54.3038 55.538 55.3967C54.4566 56.4897 53.0761 57.2383 51.5702 57.5482C50.0643 57.8582 48.5003 57.7158 47.0752 57.1388C45.6501 56.5618 44.4276 55.5761 43.5615 54.3058C42.6954 53.0355 42.2245 51.5373 42.208 49.9999C42.2025 48.9712 42.3997 47.9515 42.7883 46.999C43.1769 46.0466 43.7493 45.18 44.4728 44.4487C45.1964 43.7174 46.0568 43.1358 47.0051 42.7371C47.9534 42.3384 48.971 42.1304 49.9997 42.1249ZM30.708 83.3333C33.333 84.9166 39.0413 82.4999 45.708 76.2499C43.4798 73.7178 41.3799 71.0756 39.4163 68.3333C36.0556 67.9569 32.7175 67.4005 29.4163 66.6666C27.2913 75.5833 28.083 81.7083 30.708 83.3333ZM33.6663 59.4166L32.458 57.2916C31.987 58.4619 31.5835 59.6583 31.2497 60.8749C32.3747 61.1249 33.6247 61.3333 34.9163 61.5416L33.6663 59.4166ZM60.9163 56.2499L64.2913 49.9999L60.9163 43.7499C59.6663 41.5416 58.333 39.5833 57.1247 37.6249C54.8747 37.4999 52.4997 37.4999 49.9997 37.4999C47.4997 37.4999 45.1247 37.4999 42.8747 37.4999C41.6663 39.4583 40.333 41.4166 39.083 43.6249L35.708 49.9999L39.083 56.2499C40.333 58.4583 41.6663 60.4166 42.8747 62.3749C45.1247 62.3749 47.4997 62.3749 49.9997 62.3749C52.4997 62.3749 54.8747 62.3749 57.1247 62.3749C58.333 60.4166 59.6663 58.4583 60.9163 56.2499ZM49.9997 28.2499C49.208 29.1666 48.3747 30.1249 47.5413 31.2499H52.458C51.6247 30.1249 50.7913 29.1666 49.9997 28.2499ZM49.9997 71.7499C50.7913 70.8333 51.6247 69.8749 52.458 68.7499H47.5413C48.3747 69.8749 49.208 70.8333 49.9997 71.7499ZM69.2497 16.6666C66.6663 15.0833 60.9163 17.4999 54.2913 23.7499C56.5195 26.282 58.6194 28.9242 60.583 31.6666C63.9407 31.9879 67.2788 32.4886 70.583 33.1666C72.708 24.2499 71.9163 18.1249 69.2497 16.4999M66.333 40.4166L67.5413 42.5416C68.0124 41.3713 68.4158 40.1748 68.7497 38.9583C67.6247 38.7083 66.3747 38.4999 65.083 38.2916L66.333 40.4166ZM72.3747 11.2499C78.4997 14.7499 79.1663 23.9583 76.5413 34.7083C87.1247 37.8333 94.7497 43.0416 94.7497 50.0416C94.7497 57.0416 87.1247 62.2499 76.5413 65.3749C79.1247 76.1249 78.458 85.3333 72.3747 88.8333C66.2913 92.3333 57.9997 88.3333 49.9997 80.7083C41.9997 88.3333 33.708 92.3333 27.583 88.8333C21.458 85.3333 20.833 76.3333 23.4163 65.3749C12.833 62.2499 5.20801 57.0416 5.20801 50.0416C5.20801 43.0416 12.833 37.7916 23.4163 34.6666C20.833 23.9166 21.4997 14.7083 27.583 11.2083C33.6663 7.70826 41.9997 11.7083 49.9997 19.3333C57.9997 11.7083 66.2913 7.70826 72.3747 11.2083M71.1663 49.9999C72.6134 53.0672 73.8931 56.2107 74.9997 59.4166C83.7497 56.7916 88.6663 53.0416 88.6663 49.9999C88.6663 46.9583 83.6247 43.2083 74.9997 40.5833C73.8931 43.7891 72.6134 46.9327 71.1663 49.9999ZM28.833 49.9999C27.3859 46.9327 26.1063 43.7891 24.9997 40.5833C16.2497 43.2083 11.333 46.9583 11.333 49.9999C11.333 53.0416 16.3747 56.7916 24.9997 59.4166C26.1063 56.2107 27.3859 53.0672 28.833 49.9999ZM66.333 59.4166L65.083 61.5416C66.3747 61.5416 67.6247 61.1249 68.7497 60.8749C68.4158 59.6583 68.0124 58.4619 67.5413 57.2916L66.333 59.4166ZM54.1663 76.2499C60.7913 82.4999 66.6663 84.9166 69.1247 83.3333C71.583 81.7499 72.583 75.7499 70.458 66.6666C67.1538 67.3445 63.8157 67.8453 60.458 68.1666C58.499 70.9658 56.399 73.6637 54.1663 76.2499ZM33.6663 40.5833L34.9163 38.4583C33.6247 38.4583 32.3747 38.8749 31.2497 39.1249C31.5835 40.3415 31.987 41.5379 32.458 42.7083L33.6663 40.5833ZM45.833 23.7499C39.083 17.4999 33.333 15.0833 30.708 16.6666C28.083 18.2499 27.2913 24.2499 29.4163 33.3333C32.7205 32.6553 36.0586 32.1546 39.4163 31.8333C41.416 29.0311 43.5576 26.3332 45.833 23.7499Z" fill="white"/>
</g>
<defs>
<clipPath id="clip0_298_243">
<rect width="100" height="100" fill="white"/>
</clipPath>
</defs>
</svg>
