<svg width="64" height="64" viewBox="0 0 64 64" fill="none" xmlns="http://www.w3.org/2000/svg">
<path d="M44.0561 21.0728C44.2116 21.9016 44.3175 22.7487 44.3704 23.6108L43.6858 23.6527C43.7109 24.0619 43.7236 24.4747 43.7236 24.8906C43.7236 25.3066 43.7109 25.7193 43.6858 26.1285L44.3704 26.1705C44.3175 27.0326 44.2116 27.8797 44.0561 28.7085L43.382 28.5819C43.2284 29.4003 43.0247 30.2 42.7743 30.9774L43.4272 31.1877C43.1638 32.0058 42.8504 32.8002 42.4909 33.5671L41.8699 33.276C41.5181 34.0264 41.1205 34.7495 40.681 35.4414L41.26 35.8092C40.8006 36.5323 40.297 37.2224 39.7531 37.8756L39.226 37.4367C38.6976 38.0712 38.1299 38.6693 37.5269 39.2271L37.9927 39.7306C37.3658 40.3105 36.7019 40.8484 36.0052 41.3401L35.6097 40.7797C34.9383 41.2535 34.2354 41.6827 33.505 42.0631L33.8219 42.6714C33.0679 43.0641 32.2856 43.4069 31.4789 43.6956L31.2478 43.0498C30.4792 43.3248 29.6877 43.5488 28.8771 43.7179L29.0172 44.3894C28.1909 44.5617 27.3454 44.6791 26.4845 44.7378L26.4378 44.0535C26.0304 44.0813 25.6192 44.0954 25.2048 44.0954C24.7903 44.0954 24.3791 44.0813 23.9717 44.0535L23.925 44.7378C23.0641 44.6791 22.2186 44.5617 21.3923 44.3894L21.5324 43.7179C20.7218 43.5488 19.9303 43.3248 19.1617 43.0498L18.9307 43.6956C18.1239 43.4069 17.3416 43.0641 16.5876 42.6714L16.9045 42.0631C16.1742 41.6827 15.4712 41.2535 14.7998 40.7797L14.4043 41.3401C13.7076 40.8484 13.0437 40.3105 12.4168 39.7306L12.8826 39.2271C12.2796 38.6693 11.7119 38.0712 11.1835 37.4367L10.6565 37.8756C10.1125 37.2224 9.60886 36.5323 9.14952 35.8092L9.72847 35.4414C9.28896 34.7495 8.89141 34.0264 8.5396 33.276L7.91857 33.5671C7.55906 32.8002 7.24572 32.0057 6.98231 31.1877L7.63518 30.9774C7.38484 30.2 7.18114 29.4003 7.02753 28.5819L6.35341 28.7085C6.19785 27.8797 6.09198 27.0326 6.03912 26.1705L6.72372 26.1285C6.69863 25.7193 6.68588 25.3066 6.68588 24.8906C6.68588 24.4747 6.69863 24.0619 6.72372 23.6527L6.03912 23.6108C6.09198 22.7487 6.19785 21.9016 6.35341 21.0728L7.02753 21.1993C7.18114 20.381 7.38484 19.5813 7.63518 18.8038L6.98231 18.5936C7.24572 17.7755 7.55906 16.9811 7.91857 16.2142L8.5396 16.5053C8.89141 15.7548 9.28896 15.0317 9.72847 14.3399L9.14952 13.9721C9.60885 13.249 10.1125 12.5588 10.6564 11.9057L11.1835 12.3446C11.7119 11.7101 12.2796 11.1119 12.8826 10.5542L12.4168 10.0507C13.0437 9.47078 13.7076 8.93287 14.4043 8.44121L14.7998 9.00161C15.4712 8.52774 16.1741 8.09859 16.9045 7.71817L16.5876 7.10986C17.3416 6.71714 18.1239 6.37435 18.9306 6.08567L19.1617 6.73146C19.9303 6.45642 20.7218 6.23243 21.5324 6.06334L21.3923 5.39191C22.2186 5.21955 23.0641 5.10212 23.925 5.04346L23.9717 5.72776C24.3791 5.69999 24.7903 5.68588 25.2048 5.68588C25.6192 5.68588 26.0304 5.69999 26.4378 5.72776L26.4845 5.04346C27.3454 5.10212 28.1909 5.21955 29.0172 5.39191L28.8771 6.06334C29.6877 6.23243 30.4792 6.45642 31.2478 6.73146L31.4788 6.08567C32.2856 6.37435 33.0679 6.71714 33.8219 7.10986L33.505 7.71817C34.2353 8.09858 34.9383 8.52774 35.6097 9.00161L36.0052 8.44121C36.7019 8.93287 37.3658 9.47078 37.9927 10.0507L37.5269 10.5542C38.1299 11.1119 38.6976 11.7101 39.226 12.3446L39.7531 11.9057C40.297 12.5588 40.8006 13.249 41.26 13.9721L40.681 14.3399C41.1205 15.0317 41.5181 15.7548 41.8699 16.5053L42.4909 16.2142C42.8504 16.9811 43.1638 17.7755 43.4272 18.5936L42.7743 18.8038C43.0247 19.5813 43.2284 20.381 43.382 21.1993L44.0561 21.0728Z" stroke="#F3F2EE" stroke-width="1.37177" stroke-dasharray="2.74 2.74"/>
<path fill-rule="evenodd" clip-rule="evenodd" d="M25.2048 44.7813C35.8113 44.7813 44.4096 35.876 44.4096 24.8907C44.4096 23.4858 44.269 22.115 44.0015 20.7925C42.3837 20.3342 40.6807 20.0895 38.9225 20.0895C28.316 20.0895 19.7178 28.9948 19.7178 39.9801C19.7178 41.3849 19.8584 42.7558 20.1258 44.0783C21.7436 44.5366 23.4467 44.7813 25.2048 44.7813Z" fill="#FF4F00"/>
<path d="M57.4414 39.9801C57.4414 50.6095 49.1277 59.1849 38.9225 59.1849C28.7173 59.1849 20.4037 50.6095 20.4037 39.9801C20.4037 29.3507 28.7173 20.7754 38.9225 20.7754C49.1277 20.7754 57.4414 29.3507 57.4414 39.9801Z" stroke="#F3F2EE" stroke-width="1.37177"/>
</svg>
