<svg width="100" height="100" viewBox="0 0 100 100" fill="none" xmlns="http://www.w3.org/2000/svg">
<path d="M10.459 11.3088V90.9294H91.4296V11.3088H10.459ZM84.9884 84.5971H16.8972V17.6412H84.9884V84.5971Z" fill="white"/>
<path d="M54.1663 67.1666H46.2497L38.6247 54.6666L31.0413 67.1666H23.583L34.458 50.4999L24.2913 34.4583H31.958L38.9997 46.2499L45.833 34.4583H53.2913L43.0413 50.7082L54.1663 67.1666Z" fill="white"/>
<path d="M61.0412 67.625C59.7018 67.67 58.3723 67.3813 57.1722 66.7849C55.9721 66.1885 54.9391 65.3031 54.1662 64.2083C52.3494 61.3856 51.4742 58.0597 51.6662 54.7083C51.4626 51.3239 52.3538 47.9638 54.2079 45.125C55.0075 44.0148 56.0682 43.1185 57.2963 42.5154C58.5244 41.9122 59.8821 41.6207 61.2495 41.6667C62.6635 41.6156 64.0672 41.9255 65.3283 42.567C66.5894 43.2084 67.6664 44.1605 68.4579 45.3333H68.6662C68.3548 43.6843 68.1875 42.0114 68.1662 40.3333V32.375H74.9995V67.1667H69.7495L68.4579 63.9583H68.1662C67.4187 65.1543 66.3621 66.1263 65.108 66.7717C63.8539 67.417 62.4489 67.7119 61.0412 67.625ZM63.4579 62.2083C64.1729 62.2694 64.8923 62.1617 65.5581 61.894C66.2239 61.6262 66.8175 61.2058 67.2912 60.6667C68.2501 59.1199 68.7152 57.3177 68.6245 55.5V54.75C68.7863 52.7519 68.3512 50.7507 67.3745 49C66.8877 48.3763 66.249 47.8878 65.5195 47.5814C64.79 47.275 63.9941 47.1609 63.2079 47.25C62.5036 47.2441 61.8094 47.4169 61.1901 47.7521C60.5707 48.0872 60.0464 48.5739 59.6662 49.1667C58.7255 50.9006 58.2923 52.8645 58.4162 54.8333C58.2819 56.7498 58.7168 58.6632 59.6662 60.3333C60.0733 60.9559 60.6396 61.458 61.3064 61.7878C61.9732 62.1175 62.716 62.2627 63.4579 62.2083Z" fill="white"/>
</svg>
