<svg width="2146" height="889" viewBox="0 0 2146 889" fill="none" xmlns="http://www.w3.org/2000/svg">
<path d="M430.5 0.0997259C443.4 -0.000273764 456.3 0.600119 464 1.50012C470.9 2.30011 480.1 3.70011 484.5 4.50012C488.9 5.40011 495.9 6.90012 500 8.00012C504.1 9.00011 513.6 12.0001 521 14.5001C528.4 17.0001 540.8 22.2001 548.5 26.0001C556.2 29.8 566.8 35.6997 572 39.0997C577.2 42.4997 584.6 47.8005 588.5 50.9005C592.4 53.9005 599.7 60.5002 604.9 65.5001C610 70.4001 617.9 79.0002 622.3 84.5001C626.7 90 633.3 98.9997 636.9 104.6C640.5 110.1 646.4 120.5 656.5 141H677C690.8 141 700.4 141.5 706.2 142.5C711.1 143.3 718.7 145.2 723.2 146.6C727.8 148 734.6 150.701 738.5 152.401C742.4 154.201 749.1 158.1 753.5 161C757.9 164 765.1 169.8 769.4 174C773.8 178.1 779.8 184.9 782.9 189C786 193.1 790.6 200.6 793.2 205.5C795.8 210.4 799.2 218.6 800.9 223.5C802.5 228.4 804.7 236.3 805.7 241C807.4 249.1 807.5 261.4 807.5 726.5L805.3 736.5C804.1 742 801.7 750.5 799.9 755.5C798.2 760.5 794.8 768.3 792.4 773C790 777.7 785.2 785.3 781.7 790C778.1 794.7 771.7 801.9 767.3 806C763 810.1 756.3 815.6 752.5 818.2C748.6 820.7 741.9 824.6 737.5 826.8C733.1 829 726.6 831.7 723 832.8C719.4 834 713.4 835.7 709.5 836.7C703 838.3 685.1 838.4 451.5 838.7C269.6 839 198.2 838.8 192 838C187.3 837.3 179.7 835.701 175 834.401C170.3 833 162.4 830 157.5 827.7C152.6 825.3 144.9 820.9 140.5 818C136.1 815 129 809.2 124.6 805C120.3 800.9 114.1 793.9 110.8 789.5C107.6 785.1 102.7 777.2 100 772C97.3 766.8 93.7996 758.5 92.0996 753.5C90.4996 748.5 88.2998 740.2 87.2998 735C85.5999 726 85.5 712.297 85.5 487.5C85.5 266.6 85.6002 248.9 87.2002 241C88.2002 236.3 90.6 227.8 92.5 222C94.5 216.2 98.4998 207.3 101.3 202.1C104.2 196.9 109.4 189.1 113 184.6C116.6 180.2 123.1 173.5 127.5 169.8C131.9 166.1 139.3 160.8 144 158C148.7 155.2 156.1 151.501 160.5 149.901C164.9 148.201 172.8 145.6 178 144.2C187.3 141.7 188.2 141.601 269.5 140.901L271.3 133.2C272.3 129 274.7 120.1 276.7 113.5C278.6 106.9 281.7 97.4 283.7 92.5001C285.6 87.6001 289.3 79.2 291.9 74.0001C294.5 68.8001 299.2 60.7 302.5 56.0001C305.8 51.4001 311.9 44.2001 316 40.0001C320.1 35.9002 327.1 30.0005 331.5 26.9005C335.9 23.8005 343.1 19.4003 347.5 17.2003C351.9 15.0003 359.6 11.8001 364.5 10.0001C369.4 8.30012 377.3 5.89991 382 4.79992C386.7 3.69992 394.8 2.20011 400 1.50012C405.2 0.800119 418.9 0.199726 430.5 0.0997259ZM632.1 573.1C631.795 573.104 626.597 577.402 620.6 582.6C614.6 587.9 604.4 596.2 598.1 601.1C591.8 606.1 580.3 614.3 572.6 619.5C564.9 624.6 552.3 632.3 544.6 636.6C536.9 640.9 524.1 647.4 516.1 651.1C508.1 654.7 494.9 660.2 486.6 663.3C478.4 666.3 464.9 670.701 456.6 672.901C448.4 675.201 435.999 678.1 429.1 679.5C422.2 680.8 410.999 682.7 404.1 683.6C395.6 684.8 384.999 685.401 371.1 685.401C359.8 685.401 346.1 684.8 340.6 684.1C335.1 683.4 326.299 681.701 321.1 680.401C315.9 679.1 308.5 676.5 304.6 674.7C300.7 673 295.1 669.5 292.1 667C289.1 664.6 285.6 661.4 284.3 660C283.1 658.6 280.8 655.2 279.2 652.5C277.5 649.7 275.5 644.8 274.7 641.5C273.8 638.2 273.1 633.4 273.1 630.7C273.1 628.101 272.8 626.102 272.4 626.3C271.9 626.5 265.5 629.6 258.1 633.2C250.7 636.8 238.299 642.2 230.6 645C222.9 647.9 209.899 652.2 201.6 654.5C193.4 656.9 178.899 660.5 169.6 662.5C160.3 664.5 148.3 667.3 143.1 668.6C137.9 669.9 130 672.801 125.6 674.901C120.1 677.6 115.1 681.1 109.7 686.1L101.8 693.5C102.8 726.2 103.3 731.2 105.4 739C106.7 744.2 109.3 751.9 111 756C112.7 760.1 115.5 766 117.2 769L120.4 774.5C125.2 768.301 128.8 764.1 131.6 761.2C135.099 757.501 137.8 755.601 140.6 754.901C143.3 754.201 145.6 754.201 147.9 754.901C149.6 755.5 151.499 756.9 152.1 758C152.7 759.1 153 761.4 152.9 763.2C152.7 765.5 151.9 766.8 150.1 767.7C148.7 768.4 146.4 769.2 144.9 769.5C142.9 769.8 140.3 772.3 135.9 778.1L129.6 786.2C138.899 795.5 144.3 800.1 147.6 802.5C150.899 804.8 155.9 808.1 158.6 809.7C161.399 811.4 165.9 813.701 168.6 814.901L173.6 817.1C191.7 798.8 197.8 792.5 198.8 791.3C199.8 790.1 201.7 788.8 203.1 788.5C204.766 788.1 206.333 788.5 207.8 789.7C209 790.7 210.2 792.5 210.5 793.7C211 795.5 209.799 797.6 205.1 803C201.8 806.9 199.2 810 199.4 810C199.506 809.998 202.204 808.899 205.4 807.5C208.5 806.1 212.1 805 213.4 805C214.6 804.9 216.4 805.701 217.3 806.7C218.3 807.7 219.1 809.5 219.1 810.7C219.1 812.2 217.9 813.901 215.9 815.401C214.1 816.7 210.4 818.8 207.7 820.1L202.8 822.5C331.08 822.9 368.589 822.7 369 822.401C369.3 822.1 369.8 819.699 370 817.1L370.3 812.5C354.001 806.9 349.5 804.8 349 803.7C348.5 802.8 348.1 801 348.1 799.7C348 798.5 348.8 796.801 349.8 795.901C350.8 795.001 352.7 793.9 354.1 793.5C355.5 793.1 370.201 787.6 386.9 781.401C403.499 775.101 418.197 770.001 419.6 770C421.1 770 422.7 770.9 423.6 772.2C424.4 773.5 425.099 775.1 425.1 775.7C425.099 776.401 423 781.801 420.5 787.7C418 793.7 414.2 803.7 412 810C409.8 816.299 408.1 821.799 408.1 822.2C408.106 822.7 449.304 823 499.6 823C578.7 823 591.2 822.8 591.9 821.5C592.302 820.699 596.601 815.999 601.6 811C608.199 804.401 611.3 801.901 613.1 801.901C614.5 801.901 616.4 802.7 617.3 803.7C618.3 804.7 620.6 809.3 622.5 814C624.4 818.699 626.5 822.599 627.3 822.8C628 823 630.6 820.3 633 816.8C635.4 813.3 638.4 809.5 639.5 808.2C640.7 806.9 642.7 806 644.4 806C645.9 806 647.799 806.7 648.6 807.5C649.4 808.3 650.099 810.1 650.1 811.5C650.1 812.9 648.7 816 647.1 818.5L644.1 823L663.3 822.5C669.9 803.9 673.7 794 676 788.5C678.4 783 682.9 773.3 686.2 767C689.4 760.7 695 750.8 698.7 745C702.3 739.2 709 729.5 713.6 723.5C718.1 717.5 726.8 706.9 732.8 700C738.8 693.1 745.6 685.8 747.9 683.7C750.8 681.201 753 680 755.1 680C757.099 680 758.6 680.734 759.6 682.2C760.4 683.5 761.099 685.6 761.1 687C761 688.7 758.6 692.1 753.7 697.5C749.7 701.9 742.9 709.5 738.6 714.5C734.4 719.5 727.6 728 723.6 733.5C719.6 739 713.3 748.3 709.7 754.2C706.1 760.2 700.6 770 697.6 776C694.6 782 690.6 790.7 688.7 795.2C686.8 799.8 683.6 808 681.6 813.5L678 823.5C694 822.3 703.3 820.9 709.1 819.6C714.899 818.3 723.4 815.5 728.1 813.401L736.6 809.5C730.4 808.4 726.2 808.1 723.4 808.1C719.3 808 717.5 807.5 715.4 805.6C712.901 803.5 712.7 802.8 713.6 800.401C714.1 798.801 716.2 796.5 718.1 795.3C719.999 794 721.899 792.801 722.3 792.7C722.7 792.6 721.9 788.7 720.4 784C718.401 777.2 718.1 775.1 719 773.2C719.6 772 721.3 770.701 722.9 770.401C724.4 770.001 726.299 770.201 727.1 770.7C727.899 771.2 729.3 773 730.1 774.6C731 776.2 732 778.2 732.5 779C733.2 780.2 735.2 778.7 742 771.901C746.7 767.201 752.1 762.1 753.9 760.7C755.6 759.201 757.999 758 759.1 758C760.199 758 762 758.9 763.1 760C764.2 761.1 765.099 762.9 765.1 764C765.1 765.2 761.2 770.1 755.8 775.7C750.7 781.1 745.1 787.6 743.3 790.2C741.6 792.899 740.101 795.199 740.1 795.5C740.1 795.8 741.3 796 742.9 796C744.4 796 747 796.7 748.6 797.5C751.6 799.1 751.6 799 756.9 793.8C759.9 790.9 764.2 786 766.6 783C768.9 780 772.9 774.1 775.3 770C777.7 765.9 781.1 759.1 782.9 755C784.6 750.9 787 743.7 788.2 739C790.4 730.8 790.5 728.499 790.9 678.5L791.3 626.5C775.2 623 758 618.7 742.6 614.6C727.2 610.5 709.2 605.5 702.6 603.5C696 601.5 686.799 598.4 682.1 596.5C677.4 594.7 672.101 592.601 670.4 591.901L667.1 590.5C644.2 613.1 634.2 622.5 630.1 626.1C626 629.7 618.3 636.1 613.1 640.2C607.9 644.3 599.299 650.7 594.1 654.3C588.9 657.8 579.4 663.9 573.1 667.8C566.8 671.6 556 677.6 549.1 681C542.2 684.5 533.101 688.8 528.9 690.6C524.601 692.5 519.601 694 517.9 694C516 694.1 513.9 693.3 512.9 692.3C511.9 691.3 511.1 689.1 511.1 687.5C511.1 685.9 511.5 684 511.9 683.3C512.306 682.697 522.103 677.398 533.6 671.6C545.1 665.8 559.8 657.8 566.2 653.8C572.5 649.8 581.5 643.8 586.2 640.6C590.8 637.3 598.9 631.3 604.1 627.1C609.3 623 619.5 614.3 626.6 607.901C633.7 601.601 642.4 593.201 645.9 589.401L652.2 582.5C637 575.2 632.4 573.1 632.1 573.1ZM611.3 819.6C610.799 819.301 609.5 820 608.5 821.1C606.6 823 606.6 823.1 609.3 823C611 823 612.1 822.4 612.2 821.6C612.3 820.8 611.9 819.9 611.3 819.6ZM385.9 820C384.601 819.2 384 819.4 383.2 821C382.2 822.9 382.4 823 386.3 823C389.6 823 390.2 822.7 389.1 822C388.3 821.4 386.8 820.5 385.9 820ZM402.5 799.3C402.496 799.104 400.298 801.303 397.7 804.2C393.5 809.1 393.2 809.6 394.8 810.7C395.8 811.4 396.999 812 397.6 812C398.2 812 399.5 809.2 400.6 805.8C401.7 802.4 402.6 799.5 402.5 799.3ZM560.8 771C561.7 771 563.3 771.8 564.3 772.8C565.3 773.7 566 775.6 566 777C566 778.4 565.2 780.3 564.2 781.3C563.3 782.3 562.2 783.1 561.7 783C561.3 783 556.8 785.401 551.7 788.401C546.7 791.3 541.8 794.5 541 795.401C539.6 796.9 540 797.2 544.8 799.3C548.1 800.7 550.3 802.3 550.7 803.5C551 804.6 550.7 806.5 550.1 807.7C549.5 809 548.2 810.2 547.2 810.5C546.3 810.8 539 810.101 531 808.901C523.001 807.801 515.902 806.301 515.2 805.601C514.5 805.001 513.9 803.4 514 802C514 800.6 515 798.5 516.3 797.2C517.5 796 519.1 795 519.7 795C520.4 795 521 794.7 521 794.2C521 793.8 520.1 791.1 519 788.2C517.5 784.2 517.2 782.4 518 780.5C518.5 779.1 520 777.701 521.2 777.401C522.5 777.101 525 777.501 526.7 778.401C528.5 779.301 530.4 780.8 531 781.7C531.5 782.7 532.299 784.098 532.699 784.799L532.7 784.8C533.3 785.9 534.6 785.4 538.5 782.7C541.2 780.8 547 777.401 551.3 775.101C555.599 772.801 559.899 771 560.8 771ZM390 793.5C389.699 793.301 385.899 794.7 381.5 796.6C377.202 798.499 373.503 800.299 373.3 800.6C373.2 800.8 374.8 801.801 376.8 802.901L380.6 804.7C388.3 796.4 390.3 793.7 390 793.5ZM287 736C287.8 735.9 289.6 736.7 290.9 737.7C292.433 738.9 293.2 740.5 293.2 742.5C293.2 744.1 292.5 746 291.8 746.7C291.099 747.4 285.5 749.7 279.5 751.8C273.4 754 268.401 756.3 268.2 756.901C268.101 757.501 269.6 758.7 271.5 759.5C273.4 760.3 275.6 762.101 276.2 763.401C277.3 765.5 277.2 766.301 275.7 768.401C274.8 769.9 273 771 271.7 771C270.5 771 264.1 769.2 257.5 767C250.9 764.8 244.5 762.3 243.2 761.5C242 760.7 241 759 241 757.7C240.9 756.5 241.7 754.7 242.7 753.8C243.7 752.9 245.8 751.8 247.3 751.3C249.3 750.7 249.9 750.1 249.4 749C249.1 748.2 248.6 745.9 248.3 744C247.8 741 248.2 740.2 250.5 738.2C252.1 737 253.9 736 254.7 736C255.4 736 257.2 736.601 258.7 737.401C260.3 738.101 262.3 739.9 265 744L275.2 740C280.9 737.8 286.2 736 287 736ZM632 684.101C633.4 684.001 635.5 684.7 636.7 685.5C638 686.3 639 688 639 689.2C639 690.5 637.3 695.3 635.1 700C633 704.7 628.8 715.5 625.9 724C623 732.5 620 740.3 619.1 741.3C618.2 742.3 616.8 743.101 616 743.101C615.2 743.101 611.5 740.8 601 733L596 735.5C593.2 736.9 590.2 738 589.2 738C588.3 738.1 586.9 737.5 586.2 736.8C585.4 735.9 585 733.299 585.5 722.5L577 717.8C571.401 714.7 568.2 712.201 567.5 710.601C566.8 708.701 566.9 707.4 568 705.5C569.1 703.6 571.1 702.4 575 701.3C578 700.4 591.5 696.2 605 691.901C618.5 687.701 630.6 684.101 632 684.101ZM481.5 698C482 697.9 483.7 698.8 485.2 700C486.8 701.1 488 703 488 704.2C488 705.5 487.2 707.4 486.2 708.5C485.3 709.6 480.3 713.2 475.2 716.5C470.101 719.799 465.902 722.999 465.9 723.5C466 724 467.9 725.4 470.2 726.5C473.7 728.1 474.6 729.1 474.8 731.5C474.9 733.1 474.5 735.1 473.8 735.8C472.8 736.7 468.6 737.1 458.2 737C450.4 737 442.9 736.5 441.5 736C440.1 735.5 438.7 734.2 438.4 733.2C438 732.3 437.9 730.5 438.2 729.2C438.4 727.8 439.8 726.5 441.6 725.8C443.199 725.1 444.599 724.6 444.8 724.5C444.9 724.5 443.8 721.9 442.3 718.8C439.8 713.8 439.7 712.8 440.7 710.5C441.5 709.1 443.2 707.701 444.7 707.401C446.3 707.101 448.8 707.4 450.4 708.2C452 708.9 454.5 710.5 455.9 711.8C458.5 714.1 458.5 714.1 460.5 712.101C461.6 711.101 466.5 707.401 471.5 704.101C476.4 700.701 480.9 698 481.5 698ZM249 646C250.4 645.9 252.2 646.7 253.1 647.7C254 648.7 255.5 652.2 256.5 655.5C257.4 658.8 259.6 664 261.3 667C263.1 670 267 675.101 270 678.401C273 681.6 278.2 686.2 281.5 688.5C284.8 690.9 290.6 694.3 294.5 696.3C298.3 698.2 305.1 700.9 309.5 702.3C313.9 703.7 320.9 705.5 325 706.401C329.1 707.201 336.5 708.4 341.5 709C346.4 709.6 358.9 710.101 369.2 710.101C386.7 710.001 388.1 710.1 390 712C391.2 713.2 392 715.3 392 717.5C392 720.2 391.4 721.4 389.3 722.7C387.1 724.2 383.7 724.601 370 724.901C359.1 725.101 348.8 724.701 339.5 723.601C331.8 722.701 320.9 720.9 315.2 719.5C309.6 718.1 301.3 715.5 296.7 713.7C292.2 711.9 284.7 708.201 280 705.401C274.4 702.134 268.567 697.5 262.5 691.5C257.6 686.5 252 680 250.3 677C248.5 674 245.9 668.4 244.5 664.5C243.2 660.6 242 655.6 241.9 653.3C241.8 649.9 242.2 648.8 244.1 647.5C245.4 646.7 247.6 646 249 646ZM616.4 713C616.3 713 614.3 715.1 612.1 717.7C608.1 722.3 608 722.5 610 723.7C611.1 724.4 612.1 724.9 612.3 724.7C612.5 724.6 613.6 721.9 614.7 718.7C615.8 715.602 616.599 713.003 616.4 713ZM191.5 679C192 679 193.5 679.7 194.7 680.5C196.4 681.6 196.9 682.8 196.7 685.2C196.5 687.9 195.4 689.2 189 693.8C184.9 696.8 180.1 700 175.5 703H180.5C183.833 703 186.1 703.6 187.3 704.8C188.3 705.7 189.1 707.7 189 709.2C189 711 188.2 712.501 186.7 713.401C185.5 714.101 177.3 715.701 168.5 716.901C153 719.101 152.4 719.1 150.7 717.3C149.7 716.3 148.9 714.7 149 713.7C149 712.8 149.3 711.3 149.7 710.401C150.2 709.5 151.7 708.101 153.2 707.401C154.6 706.601 156.1 705.1 156.4 704C156.8 702.6 155.8 700.6 152.5 697C150 694.2 148 691.2 148 690.2C148 689.3 148.7 687.5 149.5 686.2C150.5 684.734 152 684 154 684C155.6 684 158.2 684.601 159.7 685.401C161.3 686.201 163.8 688.201 168.5 692.901L173 689.7C175.5 688 180.4 684.9 184 682.8C187.6 680.7 190.9 679 191.5 679ZM608.5 703.101C607.9 703.101 603.7 704.501 599 706.101C594.301 707.8 590.102 709.499 589.7 709.8C589.3 710.2 590.6 711.7 592.7 713.2L596.5 715.8C606.5 705.9 609 703.001 608.5 703.101ZM265.6 158C199.7 158.1 190.1 158.5 184.6 159.7C180.7 160.5 173.799 162.6 169.1 164.3C164.4 166.1 156.8 169.7 152.2 172.5C147.5 175.2 139.9 181.1 135.2 185.6C130.5 190.1 124.3 197 121.5 201.1C118.7 205.2 115.2 210.7 113.8 213.5C112.5 216.2 110 222.3 108.3 227C106.6 231.7 104.6 239.6 103.7 244.5C102.3 252.5 102.1 275.701 102.1 461.7V670C109.5 664.8 114.4 661.8 117.8 660.1C121.3 658.4 127.8 655.9 132.3 654.6C136.9 653.3 147.3 650.8 155.6 649C163.799 647.3 176 644.501 182.6 642.901C189.2 641.201 201.6 637.6 210.1 634.8C218.599 632 230.3 627.7 236.1 625.3C241.9 622.9 251.5 618.3 257.6 615.1C263.6 612 271.2 607.601 274.4 605.401L280.2 601.5L280 545.5C270.3 534.6 265.4 528.8 262.9 525.5C260.4 522.2 256.4 516.4 254.1 512.5C251.7 508.6 248.1 501.9 246 497.5C243.9 493.1 240.4 484.1 238.2 477.5C236 470.9 233.3 461 232.2 455.5C231.1 450 229.7 440.1 229.1 433.5C228.4 426.4 228.1 416.2 228.5 408.5C228.9 401.4 229.6 390.6 230.2 384.5C230.7 378.4 232.3 364.1 233.6 352.5L236.2 331.5C228.6 323.7 225.3 319.2 223.9 316.5C222.5 313.7 220.6 309 219.7 306C218.8 303 217.4 296.2 216.6 291C215.8 285.8 215.1 276.2 215.1 269.7V258L208.8 253.5C209.8 240.701 210.5 236.1 211.1 235C211.6 233.9 212.9 232.6 213.8 232.1C214.8 231.6 224.6 229.9 235.6 228.401C246.598 226.901 255.997 225.4 256.6 225C257.1 224.6 258 222 258.5 219.401C258.9 216.7 260.3 211.1 261.5 207C263.6 200.2 263.6 199.2 262.3 196.5C261.1 194.2 261 191.5 261.5 184.5C261.8 179.6 262.9 171.6 263.9 166.8L265.6 158ZM724.5 633C725 633 726.7 633.8 728.2 635C729.8 636.1 731 637.8 731 638.7C731.1 639.7 730.3 641.401 729.3 642.601C728.299 643.801 725.2 645.6 722.5 646.8C719.7 647.9 714.1 650.4 702.5 655.7L706.4 657.101C708.5 657.901 710.599 659.3 711.1 660.2C711.6 661.2 712 662.9 712 664C712 665.1 710.8 666.7 709.2 667.7C706.6 669.3 706 669.201 695.1 665.901C688.8 664.001 682.4 661.7 680.8 660.7C679.3 659.8 678 658.2 678 657.2C677.9 656.3 678.7 654.7 679.7 653.8C680.7 652.9 682.701 651.9 687 651L685.5 646.7C684.6 644.4 684 641.6 684 640.5C684 639.4 684.8 637.7 685.8 636.7C686.7 635.7 688.3 634.9 689.2 635C690.2 635 692.6 636.6 694.5 638.5C696.4 640.4 698 642.7 698 643.5C698 644.3 698.4 645 698.8 645C699.2 645 700 644.6 700.6 644C701.1 643.5 706.5 640.801 712.5 638.101C718.5 635.301 724 633 724.5 633ZM585.467 446.01C584.889 446.301 582.241 453.485 579.4 462.3C576.5 471.2 571.9 483.2 569.1 489C566.3 494.8 561.1 504 557.4 509.5C553.7 515 546.4 523.901 541.2 529.401C536 534.8 527.9 542.1 523.2 545.6C518.5 549.1 510 554.601 504.2 557.901C498.4 561.1 489.9 565.4 485.2 567.5C480.5 569.5 472 572.7 466.2 574.7C460.4 576.6 451 579.2 445.2 580.5C439.4 581.8 430 583.6 424.2 584.5C418.4 585.3 407 586.3 398.7 586.7C389.8 587 378.2 586.8 370.2 586.1C362.8 585.4 352.4 584 347.2 582.8C342 581.7 333.9 579.4 329.2 577.8C324.5 576.2 316.9 572.8 312.2 570.3C307.5 567.8 302 564.501 300 562.901C297.9 561.301 296.001 560.001 295.7 560C295.4 560 295.3 577 295.5 597.8L295.7 635.5C300.7 645.8 303.8 650.1 306.4 652.5C308.9 654.7 313.7 657.9 317.3 659.6C320.8 661.4 326.6 663.5 330.2 664.401C333.8 665.201 339.9 666.4 343.7 667C347.6 667.5 359.4 668 370 668C381.8 668 393.9 667.401 401.5 666.401C408.2 665.601 419.8 663.6 427.2 662C434.6 660.5 446.6 657.5 453.7 655.5C460.9 653.4 471.2 650.2 476.7 648.3C482.2 646.4 493.5 641.9 501.7 638.401C510 634.801 523 628.5 530.7 624.401C538.4 620.201 550.3 613.4 557 609.2C563.8 605 575.3 597.1 582.5 591.7C589.799 586.301 595.999 581.402 596.5 580.901C596.9 580.4 595.3 578.3 593 576.1C590.6 574 587.7 570 586.5 567.1C584.9 563.7 583.8 558.3 583.1 550.7C582.3 542.6 582.4 531.3 583.2 510C583.8 493.8 584.7 474 585.2 466C585.7 458 586.2 450.301 586.2 448.7C586.2 447.269 585.926 446.113 585.467 446.01ZM674.7 157C665.201 157 662.001 157.3 662 158.2C662 158.901 662.7 163.001 663.5 167.2C664.3 171.5 665 180.3 665 186.7C665 193.2 663.9 210.6 662.6 225.5C661.2 240.4 659.2 263.9 658.1 277.7L656 303C660.6 312.7 662.7 318.4 663.6 322C664.9 327 665.1 331.3 664.7 340.5C664.4 348.9 663.4 355.4 661.6 362L659.1 371.5C662.4 376.1 666.3 381.7 669.7 386.7C673.2 391.8 677.5 399 679.4 402.7C681.2 406.5 683.5 412 684.4 415C685.3 418 686 423.8 686 427.7C686 432.7 685.3 436.8 683.8 440.7C682.2 445 679.999 448.2 675.1 453C671.1 457 665.7 461 661.5 463.2C657.6 465.2 651.1 468.001 647 469.401C642.9 470.801 635 472.6 629.5 473.5C624 474.3 615.3 475 610.2 475H601C600.3 487 599.8 495.9 599.5 502.5C599.3 509.1 598.8 521.9 598.5 531C598.1 541.1 598.3 549.6 599 553C599.5 556 600.8 559.6 601.8 561C602.8 562.4 605.3 564.4 607.3 565.5C609.9 566.9 611.4 567.2 612.4 566.5C613.101 566 616 563.9 618.6 562C623.299 558.7 623.9 558.5 632 558.5C640.1 558.5 640.9 558.7 650 563.3C655.2 565.9 663.8 570.201 669 572.901C674.2 575.701 685.2 580.101 693.5 582.901C701.7 585.701 716.6 590.2 726.5 593C736.4 595.8 754.3 600.5 766.2 603.5C778.2 606.5 788.7 609 789.5 609C790.8 609 791 588.9 791 433.8C791 325.1 790.6 255.5 790 250.5C789.5 246.1 787.9 238.4 786.4 233.5C785 228.6 782.4 221.4 780.6 217.5C778.9 213.6 775.2 207.2 772.5 203.1C769.7 199 764.1 192.3 760 188.2C755.9 184.1 749.1 178.4 745 175.7C740.9 172.9 733.9 168.901 729.5 166.901C725.1 164.901 718.1 162.3 714 161.1C709.9 160 702.2 158.6 697 158C691.8 157.5 681.8 157 674.8 157H674.7ZM292.5 413C291.5 413.1 288.9 413.7 286.7 414.5C284.501 415.3 282.301 416.3 281.9 416.7C281.5 417.2 280.8 422.4 280.5 428.5C280.2 435 280.4 443 281.1 448C281.8 452.7 283.4 460.8 284.8 466C286.2 471.2 289 478.6 291 482.5C293.2 486.8 297.1 492 301.2 496C305.9 500.7 310.1 503.7 316.2 506.7C320.9 509 328.3 511.8 332.7 513C337.1 514.1 345.6 515.5 351.7 516.2C360.2 517.1 365.1 517.1 373.2 516.1C379 515.4 387.7 513.6 392.7 511.901C397.6 510.201 404.8 507.1 408.7 504.8C412.6 502.5 419 497.3 423.2 493.1C427.6 488.6 432.5 482.3 434.9 478C437.3 473.9 440.3 467.4 441.7 463.5C443 459.6 444.6 452.7 445.3 448C445.9 443.3 446.1 438.6 445.7 437.5C445.4 436.4 443.499 434.2 441.6 432.7L438 429.901C436 434.2 433.5 437.5 431.1 439.8C428.7 442.2 424 445.5 420.7 447.1C417.4 448.7 411.6 450.7 407.7 451.7C402.2 453.1 396.4 453.401 381.2 453.401C367.6 453.401 358.2 452.9 350.2 451.6C343.9 450.6 335 448.701 330.5 447.401C325.9 446.101 319.4 443.6 316 441.901C312.4 440.1 307.3 436.2 304.2 433.1C301.1 430 297.7 425.5 296.4 423C295.2 420.5 294.2 417.3 294.2 415.7C294.2 413.8 293.7 413 292.5 413ZM310.5 462.601C311.8 459.701 312.6 458.9 313.9 459.5C314.801 459.8 319.601 461.301 324.5 462.601C329.4 464.001 338.7 466.001 345 467.101C351.3 468.201 364.3 469.4 373.9 469.8C387.999 470.4 391.399 470.8 391.8 472C392.1 472.8 391.1 475.7 389.7 478.5C388.2 481.2 384.9 485.7 382.3 488.3C379.7 490.9 375.3 494.2 372.5 495.5C369.8 496.8 365.5 498.301 363 498.901C360.5 499.501 356 500 353 500C350 500 345 499.6 342 499C339 498.4 333.8 496.7 330.5 495.2C327.2 493.6 322.5 490.6 320.1 488.401C317.7 486.301 314.7 482.7 313.4 480.5C312.1 478.3 310.6 474.2 310 471.5C309 467.3 309.1 465.9 310.5 462.601ZM365.6 268.1C364 268.2 361.4 268.5 359.9 268.7C357.4 269.1 357.2 269.5 356.6 275.8C356.2 279.5 354.8 286.1 353.4 290.5C352 294.9 348.7 302.8 346 308C343.3 313.2 337.9 321.8 334 327C330.1 332.2 325.8 338.7 324.5 341.5C323.2 344.2 322.1 347.7 322.1 349.2C322.1 350.8 322.8 353.4 323.6 355C324.4 356.6 326.8 358.9 328.8 359.901C330.9 360.9 335.5 362.6 339.1 363.5C343.599 364.7 348 365 353.6 364.7C357.999 364.5 364.099 363.7 367.1 362.901C371.9 361.801 374.2 361.801 385.1 363.401C394.799 364.801 398.4 364.9 401.3 364.1C404.499 363.2 405.2 363.301 405.6 364.5C405.9 365.3 405.3 367.4 404.3 369.1C403.4 370.9 401.5 373.1 400.1 374.2C398.699 375.2 394.699 376.9 391.1 378C385.5 379.6 385.1 379.9 388.1 379.901C390 380.001 397 380.9 403.6 382C410.199 383 419.699 385.1 424.6 386.5C429.499 387.9 437.3 390.9 441.8 393C446.9 395.5 452.3 399.1 455.7 402.2C458.8 405.2 462.4 409.9 463.9 413C466.5 418.3 466.6 419.001 466.6 436.2C466.6 449.4 466.9 454.2 467.9 455.2C468.701 456 471.401 456.501 474.9 456.401C478.9 456.3 482.9 455.3 488.1 453.1C492.2 451.4 499.9 447.1 505.1 443.5C510.299 440 517.7 434.3 521.6 430.7C525.5 427.2 531.6 420.8 535.2 416.401C538.9 412.1 544.8 404.1 548.5 398.7C552.1 393.4 556.8 385.5 559 381.2C561.1 377 564.1 370.1 565.5 366C567 361.9 569.1 354 570.3 348.5C571.9 341.2 572.4 334.8 572.5 324.5C572.5 316.8 571.9 305.5 571.2 299.5C570.5 293.4 569.8 287.8 569.6 287C569.398 286.2 564.999 283.5 559.9 281C552.201 277.3 549.6 276.5 544.9 276.5C540.501 276.5 538.7 277 537.2 278.5C535.8 279.9 534.4 284.4 532.7 293C531.3 299.9 528.6 310.2 526.6 316C524.6 321.8 521.3 329.6 519.3 333.5C517.2 337.3 512.9 343.3 509.6 346.8C506.2 350.4 501.5 354.2 498.6 355.6C495.8 356.9 490.5 358.7 486.6 359.5C482.699 360.3 474.299 361 467.6 361C461 361.1 452.2 360.6 448.1 360C444 359.4 437.199 358 433.1 356.901C429 355.8 422.499 353.4 418.6 351.6C414.7 349.7 409.099 346 406.1 343.3C402.8 340.3 399.2 335.7 397.2 331.901C395.3 328.4 392.7 322.4 391.4 318.5C390.1 314.6 388.4 307.9 387.6 303.5C386.7 299.1 386.1 290.9 386.1 285.2C386.1 275.201 386 275 383.3 273.1C381.799 272 377.899 270.4 374.6 269.6C371.3 268.7 367.2 268.1 365.6 268.1ZM585.467 446.01C585.479 446.004 585.49 446 585.5 446H585.4C585.423 446 585.445 446.005 585.467 446.01ZM316.2 409.1C313.7 409.2 310.8 409.4 309.7 409.7C308.3 410 307.8 410.9 308 412.6C308.1 413.9 309 416.7 310.1 418.7C311.1 420.8 313.5 423.8 315.3 425.401C317.2 427 320.3 429 322.2 430C324.1 431 328.6 432.701 332.2 433.901C335.8 435.001 343 436.7 348.2 437.5C353.4 438.4 365.3 439.4 374.7 439.7C385.8 440.1 394.1 439.9 398.7 439.1C402.6 438.5 407.7 437.3 410.2 436.5C412.7 435.7 416.4 433.6 418.4 431.8C420.4 430 422.2 427.6 422.4 426.6C422.6 425.3 421.7 424 419.7 422.901C418.1 421.901 413.6 420.4 409.7 419.6C405.8 418.8 391 416.8 376.7 415.1C362.4 413.4 344 411.3 335.7 410.5C327.5 409.7 318.7 409.1 316.2 409.1ZM620.8 303C617.5 303 613.799 303.9 610.6 305.3C607.8 306.6 603.9 309.4 601.8 311.6C599.6 313.7 597.2 316.9 596.3 318.5C595.3 320.5 594.8 323.9 594.9 329C595 333.1 595.3 338.5 595.7 341L596.3 345.5C599.4 339.3 603.1 334.7 606.4 331.2C611.1 326.401 613.8 324.6 617.6 323.401C620.499 322.501 623.899 322.2 625.6 322.6C627.199 323 630 324.1 631.6 325C633.2 326 635.2 328.001 635.8 329.401C636.5 330.8 637.1 333.5 637.1 335.2C637.2 337.1 636.4 339.2 635.4 340.2C634.4 341.2 632.5 342 631.1 342C629.7 342 627.7 341.4 626.6 340.5C625.5 339.7 624 339 623.3 339C622.699 339.001 619.799 341.101 617.1 343.7C614.3 346.4 612.1 348.9 612.1 349.5C612.1 350 614.8 353 618.1 356C623.5 361.1 624 361.9 624.6 367C625 370.1 624.8 375.4 624.1 379C623.5 382.6 622 387.7 620.8 390.401C619.6 393.1 617.4 396.4 615.8 397.7C614.3 398.9 612.2 400 611.1 400C610 400 608.1 399.5 606.8 398.901C605.6 398.201 604.3 397.2 603.9 396.6C603.5 396 603.1 394.5 603.1 393.2C603.1 392 604.9 387.6 607.1 383.5C609.9 378.2 611.1 374.7 611.1 371.7C611.2 369.101 610.5 366.6 609.4 365.2C608.4 363.9 605.8 362.5 603.6 362C601.4 361.5 598.9 361 598.1 361C596.9 361.001 596.3 364.202 594.8 377.2C593.9 386.2 591.9 400.7 590.6 409.5C589.2 418.3 588 426.8 587.8 428.401C587.6 431.1 588 431.5 592.1 432.7C594.7 433.5 598.4 433.9 600.8 433.6C603.2 433.3 606.8 432.2 608.8 431.1C610.9 430.1 614.8 426.8 617.6 423.901C620.3 420.9 624.7 414.4 627.3 409.5C629.8 404.5 634.2 394.9 636.9 388C639.6 381.1 643.5 370.4 645.5 364.2C647.5 358.1 649.6 349.7 650.2 345.7C650.8 341.8 651 335.6 650.7 332C650.3 328.4 648.8 322.9 647.3 319.6C645.8 316.4 642.999 312.3 641.1 310.5C639.199 308.8 635 306.4 631.8 305.2C628.6 303.9 623.9 303 620.9 303H620.8ZM253 338.401C253.1 338.401 252.6 342.1 251.7 346.5C250.9 350.9 249.6 359.8 248.7 366.2C247.9 372.7 247.2 381 247.2 384.7C247.2 388.5 247.7 394.3 248.2 397.7C248.8 401.2 250.1 406.4 251.2 409.2C252.2 412.1 254.8 416.7 256.9 419.5L260.6 424.5C263.5 414.4 265.5 408.6 266.9 405C268.3 401.4 271.4 395.5 273.8 391.7C277.7 385.8 279 384.6 285.2 381.5C289.1 379.6 295.2 377.2 299 376.1C302.7 375.1 309.5 373.7 314.2 373L322.7 371.7C316.5 366.8 313.4 363.1 311.9 360C309.5 355.4 309.1 353.6 309.5 349L310 343.5C273.6 343.4 270.8 343.1 262.3 340.8C257.102 339.401 252.903 338.301 253 338.401ZM456.1 253.401C438.1 253.101 432.2 253.4 426.6 254.6C422.7 255.5 417.3 257.1 414.6 258.2C411.8 259.3 408.3 261.2 406.7 262.3C405 263.5 402.7 266.7 401.4 269.5C399.5 273.8 399.1 276.1 399.1 285.5C399.1 292.7 399.8 299.6 401.1 305.5C402.2 310.5 404.9 318.2 407.1 322.7C409.9 328.6 412.3 332.001 415.3 334.401C417.7 336.3 422.1 339 425.1 340.401C428.1 341.8 434.7 343.9 439.6 345C444.499 346.1 453.8 347.3 460.1 347.6C467.199 348 474.5 347.8 479.1 347.1C483.199 346.4 489.3 344.6 492.6 343C495.9 341.5 500.3 338.3 502.3 336.1C504.4 333.8 507.6 329 509.5 325.2C511.3 321.5 514 314.9 515.4 310.5C516.8 306.1 518.6 298.7 519.5 294C520.4 289.3 521.2 282.6 521.3 279C521.4 275.4 520.9 271.5 520.3 270.2C519.6 269 517.2 266.6 514.8 265C512.5 263.3 507.899 261 504.6 260C501.299 258.9 494.099 257.1 488.6 255.901C480.8 254.301 473.699 253.801 456.1 253.401ZM277.6 240.7C271.5 240.5 261.399 240.6 255.1 241C246.6 241.4 242.6 242.1 239.6 243.5C237.4 244.6 235.6 245.9 235.6 246.401C235.601 246.901 238.701 248.8 242.6 250.8C248 253.5 251.7 254.501 258.9 255.401L268.2 256.5C267.2 266.6 266.1 275.1 265 282C263.9 288.9 261.5 301.5 259.5 310C257.6 318.499 256.1 325.798 256.1 326.2C256.1 326.7 259.1 327.7 262.8 328.5C266.6 329.3 272.5 330.4 276.1 331C279.699 331.5 285.5 332 289.1 332C292.7 332 298.4 331.5 301.8 331C305.3 330.4 310.7 329 313.8 327.901C317.8 326.401 321 324.2 324.1 321.1C326.6 318.5 330.7 312.2 333.4 306.901C336 301.701 339.1 294.4 340.1 290.5C341.2 286.6 342.4 280.6 342.7 277C343.1 273.4 342.8 267.9 342.2 264.7C341.3 260.1 340.5 258.6 337.8 256.6C336.099 255.3 331.799 252.8 328.3 251.1C324.9 249.4 318.4 246.9 313.8 245.6C309.3 244.3 301.799 242.7 297.1 242.1C292.399 241.6 283.699 240.9 277.6 240.7ZM228.8 261.2C228.4 260.903 228.2 266.801 228.5 274.1C228.7 281.5 229.7 290.9 230.6 295C231.6 299.1 233.8 305.6 235.5 309.5C237.2 313.4 239.2 316.8 239.9 317.2C240.6 317.7 241.299 317.9 241.6 317.7C241.9 317.6 243 314.1 244 310C245.1 305.9 247.2 296.2 248.5 288.5C249.9 280.8 251.3 273.6 251.6 272.5C251.999 270.8 251.3 270.3 247.3 269.2C244.7 268.5 239.699 266.5 236.1 264.8C232.5 263 229.2 261.4 228.8 261.2ZM452 268C455.6 268 461.1 268.7 464.3 269.5C467.4 270.3 472.4 272.2 475.3 273.7C478.1 275.1 482.5 278.401 485 280.901C487.5 283.4 490.2 287.3 490.9 289.5C492.2 293.3 492.2 293.6 489.6 295.7C487.3 297.7 486.7 297.8 484.4 296.7C483 296.1 480.7 293.801 479.2 291.601C476.5 287.801 476.5 287.801 475.6 290.101C475.199 291.401 473.999 294.201 473.1 296.401C472.199 298.501 469.8 301.801 467.8 303.601C465.5 305.601 462.5 307.301 460.3 307.601C458.2 308.001 454.9 308.001 453 307.601C451 307.301 448.2 305.7 446.5 304C444.1 301.5 443.4 299.9 443.2 295.7C442.9 292.1 443.4 288.9 444.9 285.2C446.4 281.5 446.6 280 445.8 280C445.1 280 442.7 280.901 440.5 281.901C438.3 282.901 434.1 286.101 431.3 288.901C428.1 291.9 425.1 294 423.8 294C422.5 294 420.9 293.5 420.2 292.8C419.5 292.1 419 290.6 419 289.5C419 288.4 420.4 285.3 422.2 282.601C424 279.901 427.5 276.301 430 274.601C432.5 273.001 437 270.801 440 269.901C443 268.901 448.4 268.1 452 268ZM308.5 261C316.5 260.9 318.1 261.3 323 263.8C326.3 265.5 329.6 268.201 331.3 270.601C333.1 273.101 334.4 276.3 334.7 279.5C335.2 283.7 335 284.8 333.2 286.7C332 288 330.6 289 330 289C329.4 289 328.2 287.7 325.5 283.101L323.3 287.5C322 290 319.3 293.2 317.3 294.7C315.2 296.2 311.7 297.601 309.5 297.901C306.833 298.234 304.567 297.834 302.7 296.7C301.2 295.8 299.3 293.3 298.4 291.2C297.2 288.5 296.9 286 298 276L294.7 277.401C293 278.1 289.3 279.801 286.7 281.101C283.2 282.901 281.5 283.2 280.3 282.5C279.5 281.9 278.2 280.7 277.6 279.7C276.8 278.4 276.8 277.4 278 275.3C278.8 273.9 281.5 271 284 268.901C286.5 266.801 291 264.201 294 263.101C297.9 261.701 302.2 261.1 308.5 261ZM435.5 18.5001C421.8 18.3001 407.6 18.5001 404 19.0001C400.4 19.5001 393.2 20.8997 388 22.0997C382.8 23.2997 375.4 25.4003 371.5 26.7003C367.6 28.1003 360.4 31.3 355.5 33.7999C350.6 36.3999 343.1 41.0007 339 44.1007C334.9 47.2007 329.3 52.0998 326.6 55.0997C323.9 58.0997 319.5 63.7001 316.8 67.5001C314 71.3 310.1 77.9001 308 82.0001C306 86.1 302.6 93.8001 300.7 99.0001C298.7 104.2 295.3 114.8 293.2 122.5C291 130.2 288.1 141.2 286.7 147C285.3 152.8 283.7 160.2 283 163.5C282.4 166.8 282 169.6 282.2 169.7C282.402 169.799 285.601 168.3 289.5 166.401C293.4 164.501 299.5 162.001 303.3 160.901C309.4 159.201 309.9 158.8 309.4 156.8C309 155.5 308.8 152.9 308.8 151C308.8 149.1 310.8 141.7 313.3 134.5C315.8 127.3 318.3 120.3 318.9 118.8C319.501 117.2 322 114.5 324.5 112.8C328.5 109.9 329.1 108.8 330.6 103C331.4 99.4001 333.5 93.3 335.1 89.5001C336.8 85.7001 340.5 78.9 343.4 74.5001C346.4 70.1001 351.9 63.5996 355.6 60.0997C359.4 56.4997 365.2 51.8999 368.5 49.7999C371.8 47.7 377.6 44.6007 381.5 43.1007C385.4 41.5008 392 39.5007 396.3 38.6007C400.6 37.7007 408.9 37.0001 415 37.0001C421.1 37.0001 429.4 37.7007 433.8 38.6007C438 39.5007 444.9 41.5007 449 43.1007C453.1 44.7007 459.4 47.9 462.9 50.2999C466.4 52.5999 471.8 57.2002 474.7 60.5001C477.7 63.8 481.9 70.1001 484.1 74.5001C486.6 79.6 488.6 85.4002 489.5 90.5001C490.3 94.9 490.9 101.2 491 104.5C491 107.8 490.5 114.3 490 119C489.5 123.7 487.9 132 486.5 137.5C485 143 481 154.7 477.4 163.5C473.902 172.296 471.402 179.794 471.8 180.1C472.2 180.4 476.8 182.2 482 184C487.2 185.8 496.9 189.8 503.5 192.8C510.1 195.8 521.1 201.4 528 205.3C534.9 209.1 543.2 214.1 546.5 216.3C549.8 218.5 556.8 223.5 562 227.3C567.2 231.2 575.5 237.701 580.5 241.901C585.5 246.101 594.9 254.9 601.5 261.5C608.1 268.2 616.2 277.1 619.5 281.3C624.2 287.3 626.1 289 628 289C629.4 289 632.4 289.6 634.8 290.5L639 292C639.7 285.4 640.9 271.6 642 257C643.2 242.4 644.7 223.3 645.5 214.5C646.3 205.7 647 193.4 647 187.3C647 181.1 646.4 172.7 645.6 168.8C644.799 164.8 642.7 157.7 641 153C639.3 148.3 635.6 140 632.8 134.5C630 129 625.3 120.7 622.3 116C619.2 111.3 614.8 105 612.5 102C610.2 99 604.5 92.2998 599.9 87.2999C595.3 82.2 587.2 74.4005 582 69.9005C576.8 65.5005 568.5 59.0999 563.5 55.7999C558.5 52.4999 547.8 46.5 539.5 42.5001C531.3 38.4001 519.8 33.5001 514 31.5001C508.2 29.5001 498.1 26.6001 491.5 25.0001C484.9 23.4001 475.2 21.3005 470 20.4005C463.4 19.3005 452.9 18.7001 435.5 18.5001ZM337.6 175.5C328.8 175.3 320.2 175.4 318.6 175.6C316.999 175.9 312.899 176.8 309.6 177.7C306.3 178.5 301.099 180.5 298.1 182C295.1 183.5 290.7 186.5 288.4 188.6C284.5 192.1 283.8 193.6 280.6 204.5C278.701 211.096 277.202 216.594 277.3 216.7C277.5 216.7 281 215.7 285.1 214.3C290.299 212.5 295.6 211.6 302.6 211.3C309.799 210.9 314.5 211.201 319.3 212.401C323.1 213.3 328.7 215.2 331.8 216.7C335 218.2 340.2 221.901 343.3 224.901C346.4 228 349.3 231.6 349.7 233C350.1 234.7 349.7 236.9 348.2 239.7L346.1 244L353.5 254.5C369.699 253.9 374.5 254.3 379.1 255.5C382.699 256.4 386.499 257.8 387.6 258.5C389.4 259.8 390.1 259.5 394.6 255.3C397.299 252.8 401.6 249.8 404.1 248.5C407.699 246.7 408.8 245.5 409.8 242.401C410.5 240.201 412.3 236.7 413.9 234.5C415.9 231.7 418.9 229.4 424.2 226.8C428.2 224.8 434.7 222.301 438.6 221.401C442.8 220.401 449.7 219.7 456.1 219.8C463.799 219.8 468.8 220.4 474.6 222C478.999 223.2 485.7 225.8 489.6 227.8C493.5 229.9 499.8 234.6 504.1 238.7C511.199 245.5 512.2 246 523.1 249.8C529.399 252 539.1 255.6 544.6 257.8C550.1 260 557.2 263 560.3 264.401C563.5 265.801 566.1 266.6 566.1 266C566.099 265.399 565.199 262 564.1 258.2C562.3 252.101 561.6 251.1 555.9 246.401C552.4 243.6 544.2 237.7 537.6 233.3C531 228.9 521.799 223.1 517.1 220.5C512.4 217.8 504.099 213.5 498.6 211C493.099 208.4 482.9 204.2 475.8 201.6C468.8 199.1 458.5 195.7 452.8 194.1C447.2 192.5 436.299 189.8 428.6 188.1C420.899 186.5 406.499 183.7 396.6 182.1C386.7 180.4 372.999 178.4 366.1 177.5C359.199 176.6 346.399 175.7 337.6 175.5ZM359 121.401C344.9 121.001 339.7 121.2 337.1 122.3C335.2 123 333.1 124.501 332.4 125.601C331.7 126.601 329.799 131.001 328.1 135.2C326.4 139.5 324.7 144.7 324.4 146.7C324 149.6 324.3 151.1 325.7 152.8C327.2 154.7 329 155.2 336.5 156C341.4 156.5 350.9 157.4 357.5 158C364.1 158.6 378.3 160.4 389 162.1C399.7 163.7 415.3 166.4 423.5 168.1C431.8 169.7 442.7 172.1 447.8 173.5C456.4 175.8 457 175.9 457.5 174.3C457.801 173.298 460.5 165.299 463.5 156.5C466.499 147.702 468.599 140.203 468.2 139.901C467.799 139.5 461.899 137.601 455 135.601C448.1 133.601 435.8 130.7 427.5 129C419.3 127.4 404.6 125.2 395 124C385.4 122.8 369.2 121.701 359 121.401Z" fill="black"/>
<path d="M878.05 207.61H950.032C971.806 207.61 987.344 214.692 996.646 228.856C1005.95 242.808 1010.6 263.314 1010.6 290.373C1010.6 317.433 1006.48 337.833 998.231 351.574C989.987 365.315 975.189 372.186 953.837 372.186H931.64V480H878.05V207.61ZM934.811 323.035C941.364 323.035 946.121 321.872 949.081 319.547C952.252 317.01 954.26 313.522 955.105 309.082C956.162 304.432 956.691 297.878 956.691 289.422C956.691 278.006 955.423 269.762 952.886 264.688C950.349 259.615 945.275 257.078 937.665 257.078H931.64V323.035H934.811ZM1027.62 207.61H1111.33C1124.65 207.61 1134.91 210.675 1142.09 216.806C1149.49 222.725 1154.46 231.181 1157 242.174C1159.53 252.955 1160.8 266.802 1160.8 283.714C1160.8 299.147 1158.79 311.196 1154.78 319.864C1150.76 328.531 1143.78 334.556 1133.85 337.939C1142.09 339.63 1148.01 343.752 1151.61 350.306C1155.41 356.859 1157.31 365.738 1157.31 376.942L1156.68 480H1103.41V373.454C1103.41 365.844 1101.93 360.981 1098.97 358.867C1096.01 356.753 1090.62 355.696 1082.8 355.696V480H1027.62V207.61ZM1096.11 308.448C1103.72 308.448 1107.53 300.204 1107.53 283.714C1107.53 276.527 1107.21 271.136 1106.58 267.542C1105.94 263.948 1104.78 261.517 1103.09 260.249C1101.4 258.769 1098.97 258.029 1095.8 258.029H1083.11V308.448H1096.11ZM1171.45 480L1197.76 207.61H1290.04L1316.04 480H1264.36L1260.55 435.923H1227.57L1224.4 480H1171.45ZM1231.69 392.48H1256.43L1244.38 253.907H1241.84L1231.69 392.48Z" fill="black"/>
<path d="M1350.88 480L1317.27 207.293H1369.27L1389.25 392.797L1407.01 207.293H1459.01L1425.4 480H1350.88ZM1474.47 480V207.61H1583.56V260.249H1529.97V313.205H1581.34V364.575H1529.97V427.044H1587.04V480H1474.47ZM1605.15 480V207.61H1714.24V260.249H1660.65V313.205H1712.02V364.575H1660.65V427.044H1717.72V480H1605.15ZM1735.83 480V207.61H1791.96L1817.01 337.939V207.61H1869.65V480H1816.38L1789.11 343.646V480H1735.83Z" fill="#FF4F00"/>
<path d="M934.177 787.537C914.516 787.537 899.824 780.666 890.1 766.925C880.587 752.973 875.83 731.938 875.83 703.822V586.495C875.83 561.338 881.432 542.312 892.637 529.416C903.841 516.521 920.541 510.073 942.739 510.073C960.708 510.073 974.66 513.667 984.596 520.855C994.532 528.042 1001.4 538.507 1005.21 552.248C1009.01 565.989 1010.92 583.641 1010.92 605.204H957.642V580.787C957.642 574.233 956.691 569.16 954.788 565.566C953.097 561.972 949.926 560.175 945.275 560.175C934.917 560.175 929.737 566.94 929.737 580.47V712.384C929.737 720.628 930.794 726.865 932.908 731.093C935.022 735.321 938.722 737.435 944.007 737.435C949.292 737.435 952.991 735.321 955.105 731.093C957.219 726.865 958.276 720.628 958.276 712.384V673.38H943.69V626.449H1010.28V785H988.401L979.205 762.169C969.481 779.081 954.471 787.537 934.177 787.537ZM1096.96 787.537C1074.98 787.537 1058.27 780.878 1046.86 767.559C1035.44 754.03 1029.74 735.109 1029.74 710.798V581.104C1029.74 557.638 1035.44 539.986 1046.86 528.148C1058.27 516.098 1074.98 510.073 1096.96 510.073C1118.95 510.073 1135.65 516.098 1147.06 528.148C1158.48 539.986 1164.19 557.638 1164.19 581.104V710.798C1164.19 735.321 1158.48 754.241 1147.06 767.559C1135.65 780.878 1118.95 787.537 1096.96 787.537ZM1096.96 737.435C1101.82 737.435 1105.1 735.321 1106.79 731.093C1108.48 726.865 1109.33 720.946 1109.33 713.335V580.153C1109.33 574.233 1108.48 569.477 1106.79 565.883C1105.31 562.078 1102.14 560.175 1097.28 560.175C1088.19 560.175 1083.64 567.046 1083.64 580.787V713.652C1083.64 721.474 1084.59 727.393 1086.5 731.41C1088.4 735.426 1091.89 737.435 1096.96 737.435ZM1186.17 512.61H1269.89C1283.2 512.61 1293.46 515.675 1300.64 521.806C1308.04 527.725 1313.01 536.181 1315.55 547.174C1318.08 557.955 1319.35 571.802 1319.35 588.714C1319.35 604.147 1317.34 616.196 1313.33 624.864C1309.31 633.531 1302.34 639.556 1292.4 642.939C1300.64 644.63 1306.56 648.752 1310.16 655.306C1313.96 661.859 1315.87 670.738 1315.87 681.942L1315.23 785H1261.96V678.454C1261.96 670.844 1260.48 665.981 1257.52 663.867C1254.56 661.753 1249.17 660.696 1241.35 660.696V785H1186.17V512.61ZM1254.66 613.448C1262.28 613.448 1266.08 605.204 1266.08 588.714C1266.08 581.527 1265.76 576.136 1265.13 572.542C1264.49 568.948 1263.33 566.517 1261.64 565.249C1259.95 563.769 1257.52 563.029 1254.35 563.029H1241.66V613.448H1254.66ZM1330 785L1356.32 512.61H1448.59L1474.59 785H1422.91L1419.1 740.923H1386.12L1382.95 785H1330ZM1390.25 697.48H1414.98L1402.93 558.907H1400.39L1390.25 697.48ZM1491.19 785V512.61H1545.1V621.693L1570.47 512.61H1625.33L1594.89 637.231L1631.67 785H1575.23L1545.42 653.086V785H1491.19ZM1633.47 785L1659.79 512.61H1752.07L1778.07 785H1726.38L1722.58 740.923H1689.6L1686.43 785H1633.47ZM1693.72 697.48H1718.46L1706.41 558.907H1703.87L1693.72 697.48ZM1794.67 785V512.61H1849.21V738.703H1905.34V785H1794.67ZM1913.41 785L1939.73 512.61H2032.01L2058.01 785H2006.32L2002.52 740.923H1969.54L1966.37 785H1913.41ZM1973.66 697.48H1998.4L1986.35 558.907H1983.81L1973.66 697.48Z" fill="black"/>
</svg>
