<svg width="64" height="64" viewBox="0 0 64 64" fill="none" xmlns="http://www.w3.org/2000/svg">
<rect x="1.5" y="1.5" width="61" height="61" rx="30.5" stroke="#F3F2EE" stroke-width="3"/>
<path d="M45.0607 33.0607C45.6464 32.4749 45.6464 31.5251 45.0607 30.9393L35.5147 21.3934C34.9289 20.8076 33.9792 20.8076 33.3934 21.3934C32.8076 21.9792 32.8076 22.9289 33.3934 23.5147L41.8787 32L33.3934 40.4853C32.8076 41.0711 32.8076 42.0208 33.3934 42.6066C33.9792 43.1924 34.9289 43.1924 35.5147 42.6066L45.0607 33.0607ZM20 30.5C19.1716 30.5 18.5 31.1716 18.5 32C18.5 32.8284 19.1716 33.5 20 33.5V30.5ZM44 30.5H20V33.5H44V30.5Z" fill="#F3F2EE"/>
</svg>
