<svg width="64" height="64" viewBox="0 0 64 64" fill="none" xmlns="http://www.w3.org/2000/svg">
<rect x="-1.5" y="1.5" width="61" height="61" rx="30.5" transform="matrix(-1 0 0 1 61 0)" stroke="#F3F2EE" stroke-width="3"/>
<path d="M18.9393 33.0607C18.3536 32.4749 18.3536 31.5251 18.9393 30.9393L28.4853 21.3934C29.0711 20.8076 30.0208 20.8076 30.6066 21.3934C31.1924 21.9792 31.1924 22.9289 30.6066 23.5147L22.1213 32L30.6066 40.4853C31.1924 41.0711 31.1924 42.0208 30.6066 42.6066C30.0208 43.1924 29.0711 43.1924 28.4853 42.6066L18.9393 33.0607ZM44 30.5C44.8284 30.5 45.5 31.1716 45.5 32C45.5 32.8284 44.8284 33.5 44 33.5V30.5ZM20 30.5H44V33.5H20V30.5Z" fill="#F3F2EE"/>
</svg>
